<svg width="150" height="50" viewBox="0 0 150 50" fill="none" xmlns="http://www.w3.org/2000/svg">
<g clip-path="url(#clip0_4553_44837)">
<path d="M49.364 16.6312L52.6552 25.8553L56.1847 16.2415C56.4661 15.462 56.726 14.9206 57.0075 14.5959C57.2889 14.2711 57.6787 14.1195 58.22 14.1195C58.4636 14.1147 58.7056 14.1582 58.9323 14.2474C59.159 14.3366 59.3658 14.4697 59.5408 14.6392C59.7118 14.7914 59.8485 14.9782 59.9418 15.1872C60.0352 15.3963 60.083 15.6228 60.0821 15.8517C60.0811 16.0639 60.052 16.2751 59.9955 16.4796C59.9364 16.7074 59.8641 16.9315 59.779 17.1509C59.6924 17.3674 59.6058 17.6056 59.4975 17.8654L55.6 27.5226C55.4918 27.804 55.3402 28.1505 55.167 28.5835C55.0217 28.9691 54.825 29.3332 54.5823 29.6662C54.3778 29.9584 54.1117 30.2023 53.8028 30.3807C53.4561 30.5627 53.0683 30.6522 52.6769 30.6406C52.1847 30.6666 51.6976 30.5296 51.2911 30.2508C50.9765 30.0229 50.7174 29.7268 50.5333 29.3847C50.3601 29.0816 50.1002 28.4536 49.7105 27.5442L45.8563 17.9953C45.7697 17.7572 45.6831 17.519 45.5748 17.2808C45.4825 17.0398 45.403 16.794 45.3366 16.5446C45.2787 16.3329 45.2496 16.1145 45.25 15.895C45.2528 15.601 45.3432 15.3145 45.5098 15.0722C45.6843 14.7967 45.9218 14.5666 46.2027 14.401C46.4988 14.2296 46.835 14.1399 47.1771 14.1411C47.8483 14.1411 48.3247 14.336 48.5629 14.7258C48.904 15.3272 49.1729 15.9668 49.364 16.6312Z" fill="white"/>
<path d="M64 12.8635C63.469 12.874 62.9527 12.6891 62.5492 12.3438C62.3432 12.1604 62.1816 11.9325 62.0766 11.6774C61.9716 11.4224 61.9259 11.1468 61.9429 10.8714C61.9345 10.6036 61.9844 10.337 62.0891 10.0903C62.1937 9.84355 62.3507 9.62249 62.5492 9.44237C62.9368 9.08008 63.4477 8.87881 63.9783 8.8794C64.4907 8.87914 64.9876 9.05496 65.3857 9.37741C65.7971 9.72385 65.992 10.2002 65.992 10.8498C66.0057 11.1228 65.9606 11.3955 65.8598 11.6495C65.7589 11.9036 65.6046 12.133 65.4074 12.3222C65.0281 12.6813 64.5221 12.8759 64 12.8635Z" fill="white"/>
<path d="M66.0141 16.3929V28.1287C66.0141 28.9515 65.8192 29.5578 65.4295 29.9692C65.2433 30.1731 65.0155 30.3347 64.7615 30.443C64.5074 30.5514 64.2331 30.6039 63.9571 30.5971C63.6817 30.607 63.4077 30.5536 63.1562 30.441C62.9047 30.3283 62.6824 30.1595 62.5063 29.9475C62.1382 29.5145 61.9434 28.9082 61.9434 28.1287V16.5228C61.9434 15.7217 62.1382 15.1154 62.5063 14.704C62.6882 14.5018 62.9126 14.3425 63.1635 14.2377C63.4144 14.1328 63.6854 14.085 63.9571 14.0977C64.2316 14.087 64.5053 14.1356 64.7594 14.2403C65.0135 14.3449 65.242 14.503 65.4295 14.704C65.8386 15.1683 66.0486 15.775 66.0141 16.3929Z" fill="white"/>
<path d="M72.3578 24.7289V28.1284C72.3578 28.9512 72.163 29.5574 71.7732 29.9688C71.5817 30.1627 71.3533 30.3162 71.1015 30.4203C70.8497 30.5244 70.5796 30.577 70.3071 30.575C70.0346 30.573 69.7653 30.5164 69.515 30.4086C69.2648 30.3007 69.0387 30.1439 68.8501 29.9472C68.482 29.5358 68.2871 28.9079 68.2871 28.1067V16.804C68.2871 14.9851 68.9367 14.0757 70.2575 14.0757C70.9287 14.0757 71.4268 14.2922 71.7082 14.7253C71.9897 15.1584 72.163 15.7863 72.2063 16.6091C72.5915 15.8995 73.0971 15.2621 73.7003 14.7253C74.2787 14.2714 75.0012 14.0408 75.7357 14.0757C76.6069 14.0807 77.4631 14.304 78.2257 14.7253C79.0269 15.1584 79.4383 15.7213 79.4383 16.4142C79.4447 16.6451 79.4016 16.8747 79.312 17.0875C79.2224 17.3004 79.0882 17.4917 78.9186 17.6484C78.6275 17.9463 78.2308 18.1175 77.8143 18.1248C77.4436 18.074 77.0802 17.9795 76.7317 17.8433C76.2425 17.6775 75.7321 17.5827 75.216 17.5618C74.6902 17.5359 74.1734 17.7056 73.7653 18.0382C73.3512 18.4088 73.0509 18.8894 72.8991 19.4239C72.6697 20.1335 72.5244 20.8675 72.4661 21.6109C72.4011 22.477 72.3578 23.5163 72.3578 24.7289Z" fill="white"/>
<path d="M81.8848 14.444H82.3395V12.0189C82.3395 11.3694 82.3612 10.8497 82.3828 10.4816C82.411 10.1482 82.5068 9.82404 82.6643 9.52887C82.8271 9.24403 83.0673 9.01125 83.3572 8.85763C83.6599 8.68332 84.0039 8.59357 84.3532 8.5978C84.8802 8.60373 85.3846 8.81321 85.7607 9.18242C86.0394 9.42988 86.2232 9.76679 86.2803 10.1351C86.3599 10.6581 86.3961 11.1868 86.3886 11.7158V14.4873H87.8826C88.4673 14.4873 88.9003 14.6173 89.2035 14.8988C89.3495 15.0291 89.4657 15.1895 89.5442 15.3688C89.6226 15.5482 89.6615 15.7423 89.6582 15.9381C89.6767 16.1723 89.6248 16.4068 89.509 16.6113C89.3933 16.8158 89.219 16.981 89.0086 17.0857C88.5755 17.3022 87.9692 17.4105 87.1681 17.4105H86.3886V24.8807C86.3818 25.3723 86.4035 25.8639 86.4536 26.3531C86.4838 26.6559 86.6045 26.9426 86.8 27.1759C86.9949 27.3924 87.298 27.5007 87.7527 27.5007C88.081 27.4893 88.4073 27.4458 88.7271 27.3707C89.0396 27.296 89.3587 27.2525 89.6798 27.2408C89.8464 27.2425 90.011 27.2779 90.1636 27.3449C90.3161 27.4119 90.4536 27.509 90.5676 27.6306C90.6956 27.7578 90.7962 27.9099 90.8632 28.0775C90.9302 28.245 90.9623 28.4245 90.9573 28.6049C90.9573 29.2545 90.6109 29.7525 89.8963 30.099C89.1818 30.4454 88.1641 30.6187 86.8216 30.6187C85.5441 30.6187 84.5914 30.4021 83.9418 29.9691C83.3049 29.5621 82.8478 28.9268 82.6643 28.1935C82.4407 27.2065 82.3389 26.1957 82.3612 25.1838V17.3888H81.8199C81.2352 17.3888 80.7805 17.2589 80.4774 16.9774C80.3292 16.8441 80.2118 16.6802 80.1333 16.497C80.0548 16.3138 80.017 16.1157 80.0227 15.9164C80.014 15.7178 80.0527 15.52 80.1355 15.3393C80.2183 15.1586 80.3429 15.0002 80.499 14.8771C80.8022 14.5956 81.2785 14.444 81.8848 14.444Z" fill="white"/>
<path d="M102.37 28.3021V27.7824C101.925 28.3578 101.408 28.8744 100.833 29.3198C100.307 29.7302 99.7132 30.0453 99.0787 30.2508C98.3761 30.4591 97.6463 30.5613 96.9135 30.554C95.9965 30.5718 95.0893 30.3636 94.2718 29.9477C93.5232 29.5688 92.8993 28.9825 92.4746 28.2588C91.9766 27.3927 91.7168 26.1585 91.7168 24.5345V16.5013C91.7168 15.6785 91.89 15.0723 92.2581 14.6825C92.44 14.4803 92.6644 14.3211 92.9153 14.2162C93.1662 14.1114 93.4372 14.0636 93.7089 14.0762C93.9867 14.0648 94.2638 14.113 94.5215 14.2176C94.7792 14.3222 95.0115 14.4807 95.2029 14.6825C95.571 15.0939 95.7659 15.7002 95.7659 16.5013V22.9972C95.7541 23.7904 95.834 24.5824 96.004 25.3573C96.1139 25.9345 96.4106 26.4596 96.8485 26.8514C97.3169 27.2341 97.9118 27.4273 98.5158 27.3927C99.2054 27.3952 99.8788 27.1833 100.443 26.7864C101.028 26.3997 101.487 25.8502 101.764 25.2058C102.002 24.6211 102.11 23.3653 102.11 21.4382V16.5013C102.11 15.7002 102.305 15.0939 102.673 14.6825C102.859 14.48 103.088 14.3207 103.342 14.2159C103.596 14.1112 103.871 14.0635 104.145 14.0762C104.417 14.0636 104.688 14.1114 104.939 14.2162C105.19 14.3211 105.414 14.4803 105.596 14.6825C105.964 15.0939 106.138 15.7002 106.138 16.5013V28.2588C106.138 29.0383 105.964 29.6013 105.618 29.991C105.448 30.1834 105.238 30.3357 105.002 30.4368C104.766 30.5379 104.51 30.5853 104.254 30.5756C103.995 30.5859 103.738 30.5365 103.501 30.4314C103.265 30.3263 103.055 30.1682 102.89 29.9694C102.543 29.5796 102.37 29.0166 102.37 28.3021Z" fill="white"/>
<path d="M118.826 28.302C117.963 28.9986 117.008 29.5741 115.99 30.0126C115.013 30.4063 113.967 30.5978 112.915 30.5756C111.963 30.598 111.019 30.39 110.165 29.9693C109.42 29.5864 108.792 29.0106 108.346 28.302C107.917 27.614 107.691 26.818 107.697 26.0068C107.67 24.9597 108.051 23.9431 108.758 23.1703C109.45 22.3908 110.425 21.8712 111.659 21.5897C111.919 21.5247 112.547 21.3948 113.586 21.1783C114.625 20.9617 115.492 20.7885 116.206 20.6153C116.921 20.4421 117.722 20.2256 118.566 19.9874C118.523 18.9264 118.306 18.1252 117.917 17.6272C117.527 17.1292 116.747 16.8694 115.557 16.8694C114.517 16.8694 113.759 17.0209 113.24 17.3024C112.687 17.6118 112.225 18.0595 111.897 18.6016C111.529 19.1862 111.269 19.5543 111.118 19.7492C110.966 19.9441 110.641 20.0307 110.122 20.0307C109.686 20.0326 109.264 19.8791 108.931 19.5976C108.77 19.4582 108.642 19.285 108.556 19.0904C108.47 18.8957 108.428 18.6845 108.433 18.4717C108.451 17.7146 108.718 16.9844 109.191 16.393C109.689 15.7218 110.49 15.1588 111.551 14.7258C112.612 14.2927 113.954 14.0762 115.557 14.0762C117.332 14.0762 118.739 14.2927 119.757 14.7041C120.71 15.0623 121.486 15.7765 121.922 16.6962C122.334 17.6056 122.55 18.8181 122.55 20.3122V22.7373C122.55 23.4085 122.529 24.1447 122.529 24.9459C122.539 25.7531 122.663 26.5549 122.897 27.3277C123.157 28.1505 123.287 28.6918 123.287 28.93C123.278 29.1522 123.222 29.37 123.121 29.5682C123.02 29.7664 122.877 29.9402 122.702 30.0776C122.342 30.4096 121.871 30.5949 121.381 30.5972C120.909 30.5703 120.467 30.3606 120.147 30.0126C119.631 29.5051 119.187 28.9296 118.826 28.302ZM118.545 22.4341C117.696 22.7262 116.828 22.9578 115.946 23.127C114.82 23.3652 114.019 23.5384 113.586 23.6683C113.125 23.8007 112.697 24.0295 112.33 24.3396C112.135 24.5118 111.981 24.7258 111.88 24.9657C111.779 25.2056 111.733 25.4653 111.746 25.7254C111.743 26.0197 111.803 26.3112 111.923 26.5802C112.042 26.8491 112.218 27.0893 112.439 27.2844C112.939 27.7265 113.59 27.9591 114.257 27.9339C115.031 27.9395 115.796 27.7614 116.488 27.4143C117.108 27.1148 117.627 26.6407 117.982 26.0501C118.35 25.4439 118.523 24.4262 118.523 23.0188V22.4341H118.545Z" fill="white"/>
<path d="M125.43 28.1288V10.5251C125.43 9.70228 125.603 9.09601 125.971 8.6846C126.154 8.47729 126.382 8.31339 126.636 8.20479C126.891 8.09618 127.167 8.04559 127.443 8.05667C127.721 8.05089 127.996 8.10168 128.253 8.20592C128.51 8.31016 128.743 8.46567 128.937 8.66295C129.306 9.07435 129.5 9.68063 129.5 10.5034V28.1071C129.5 28.9299 129.306 29.5362 128.937 29.9476C128.75 30.1485 128.521 30.3067 128.267 30.4113C128.013 30.516 127.74 30.5646 127.465 30.5539C127.19 30.5615 126.917 30.5071 126.666 30.3947C126.414 30.2822 126.192 30.1146 126.014 29.9043C125.625 29.5362 125.43 28.9083 125.43 28.1288Z" fill="white"/>
<path d="M27.0383 22.8022C28.2342 22.8022 29.2036 21.8328 29.2036 20.637C29.2036 19.4411 28.2342 18.4717 27.0383 18.4717C25.8425 18.4717 24.873 19.4411 24.873 20.637C24.873 21.8328 25.8425 22.8022 27.0383 22.8022Z" fill="white"/>
<path d="M40.1399 27.1543C41.3357 27.1543 42.3052 26.1849 42.3052 24.989C42.3052 23.7932 41.3357 22.8237 40.1399 22.8237C38.944 22.8237 37.9746 23.7932 37.9746 24.989C37.9746 26.1849 38.944 27.1543 40.1399 27.1543Z" fill="#33DED8"/>
<path d="M31.4133 18.4282C32.6092 18.4282 33.5786 17.4588 33.5786 16.2629C33.5786 15.0671 32.6092 14.0977 31.4133 14.0977C30.2175 14.0977 29.248 15.0671 29.248 16.2629C29.248 17.4588 30.2175 18.4282 31.4133 18.4282Z" fill="white"/>
<path d="M22.6653 18.4282C23.8611 18.4282 24.8306 17.4588 24.8306 16.2629C24.8306 15.0671 23.8611 14.0977 22.6653 14.0977C21.4694 14.0977 20.5 15.0671 20.5 16.2629C20.5 17.4588 21.4694 18.4282 22.6653 18.4282Z" fill="white"/>
<path d="M35.7864 22.8022C36.9822 22.8022 37.9516 21.8328 37.9516 20.637C37.9516 19.4411 36.9822 18.4717 35.7864 18.4717C34.5905 18.4717 33.6211 19.4411 33.6211 20.637C33.6211 21.8328 34.5905 22.8022 35.7864 22.8022Z" fill="#33DED8"/>
<path d="M40.1399 18.4282C41.3357 18.4282 42.3052 17.4588 42.3052 16.2629C42.3052 15.0671 41.3357 14.0977 40.1399 14.0977C38.944 14.0977 37.9746 15.0671 37.9746 16.2629C37.9746 17.4588 38.944 18.4282 40.1399 18.4282Z" fill="#33DED8"/>
<path d="M57.1152 37.7641C57.1152 35.2091 59.064 33.5635 61.2076 33.5635C63.4378 33.5635 64.5854 34.9276 64.8886 36.2268L63.4378 36.7031C63.243 35.9236 62.615 35.0792 61.2293 35.0792C60.0167 35.0792 58.7608 35.9453 58.7608 37.7641C58.7608 39.4747 59.9734 40.4274 61.2509 40.4274C61.7575 40.4503 62.2568 40.2997 62.6662 40.0005C63.0756 39.7013 63.3707 39.2714 63.5028 38.7818L64.9752 39.2148C64.672 40.4491 63.5028 41.9431 61.2509 41.9431C58.999 41.9431 57.1152 40.3191 57.1152 37.7641Z" fill="#33DED8"/>
<path d="M70.7568 33.5635C72.9437 33.5635 74.8924 35.1658 74.8924 37.7641C74.8924 40.3624 72.9437 41.9431 70.7568 41.9431C68.5698 41.9431 66.6211 40.3408 66.6211 37.7641C66.6211 35.1874 68.5915 33.5635 70.7568 33.5635ZM70.7568 40.4274C72.0126 40.4274 73.2685 39.5613 73.2685 37.7425C73.2685 35.9236 71.991 35.0575 70.7568 35.0575C69.5226 35.0575 68.2451 35.9236 68.2451 37.7425C68.2451 39.5613 69.5226 40.4274 70.7568 40.4274Z" fill="#33DED8"/>
<path d="M85.9138 33.7368H87.5161L85.2859 41.7916H83.6836L81.8431 36.0537L80.0026 41.7916H78.3787L76.1484 33.7368H77.8157L79.2881 39.2799L81.0636 33.7368H82.6876L84.4848 39.3016L85.9138 33.7368Z" fill="#33DED8"/>
<path d="M92.8857 33.5635C95.0726 33.5635 97.0214 35.1658 97.0214 37.7641C97.0214 40.3624 95.0726 41.9431 92.8857 41.9431C90.6987 41.9431 88.75 40.3408 88.75 37.7641C88.75 35.1874 90.6987 33.5635 92.8857 33.5635ZM92.8857 40.4274C94.1415 40.4274 95.3974 39.5613 95.3974 37.7425C95.3974 35.9236 94.1199 35.0575 92.8857 35.0575C91.6515 35.0575 90.374 35.9236 90.374 37.7425C90.374 39.5613 91.6515 40.4274 92.8857 40.4274Z" fill="#33DED8"/>
<path d="M101.698 38.6738H100.876V41.7702H99.2949V33.7153H102.435C103.994 33.7153 104.99 34.798 104.99 36.1837C105.008 36.7013 104.848 37.2095 104.537 37.6234C104.225 38.0372 103.781 38.3316 103.279 38.4573L105.011 41.7485H103.279L101.698 38.6738ZM102.153 37.3313C102.954 37.3313 103.409 36.8766 103.409 36.2271C103.409 35.5775 102.954 35.1011 102.153 35.1011H100.876V37.3313H102.153Z" fill="#33DED8"/>
<path d="M109.883 38.4351L108.887 39.5394V41.7697H107.328V33.7148H108.887V37.3525L112.113 33.7148H114.17L110.987 37.2226L114.192 41.7697H112.222L109.883 38.4351Z" fill="#33DED8"/>
<path d="M116.162 41.7916V33.7368H121.207V35.2092H117.743V37.0497H120.882V38.4355H117.743V40.2976H121.207V41.77H116.162V41.7916Z" fill="#33DED8"/>
<path d="M126.058 38.6733H125.235V41.7697H123.654V33.7148H126.794C128.353 33.7148 129.349 34.7975 129.349 36.1833C129.367 36.7008 129.208 37.209 128.896 37.6229C128.585 38.0367 128.141 38.3311 127.638 38.4568L129.371 41.748H127.617L126.058 38.6733ZM126.512 37.3309C127.314 37.3309 127.768 36.8761 127.768 36.2266C127.768 35.577 127.314 35.1006 126.512 35.1006H125.235V37.3309H126.512Z" fill="#33DED8"/>
</g>
<defs>
<clipPath id="clip0_4553_44837">
<rect width="109" height="33.8866" fill="white" transform="translate(20.5 8.05664)"/>
</clipPath>
</defs>
</svg>
