<svg width="132" height="15" viewBox="0 0 132 15" fill="none" xmlns="http://www.w3.org/2000/svg">
<g clip-path="url(#clip0_4666_81455)">
<path d="M34.6422 4.07715L33.4395 4.86915L33.8502 5.22115V9.88515C33.8502 10.2958 33.4982 10.5891 33.0288 10.5891H32.8235V4.78115L31.7968 4.10648L30.5062 4.95715L30.5648 5.07448C30.5648 5.07448 30.7995 4.92782 30.8582 4.89848C30.8582 4.89848 31.3275 5.33848 31.3275 5.74915V10.5598C30.7995 10.7065 30.2715 11.1465 30.2715 12.1145C30.2715 12.5545 30.6528 13.1411 31.3568 13.2585C31.7382 13.3171 32.8235 13.1705 32.8528 13.1411C32.9995 13.1118 33.2048 13.0825 33.7328 13.0825C34.2022 13.0531 34.4955 13.2585 34.6422 13.4051L34.7595 13.5225C34.9062 13.3758 35.0235 13.0531 35.0235 12.8478C35.0235 12.3785 34.8182 12.0558 34.4662 11.8505C34.2315 11.7038 33.9088 11.6745 33.4982 11.6745C33.4688 11.6745 33.3515 11.6745 33.2048 11.7038C33.0288 11.7331 32.7648 11.7625 32.5302 11.7625C32.2075 11.7918 31.8555 11.8505 31.6208 11.8798C31.4742 11.9091 31.3568 11.9091 31.3275 11.9091C31.1515 11.9091 31.0342 11.8505 30.9168 11.7625C30.7995 11.6745 30.7995 11.5278 30.7995 11.4691C30.8288 11.0585 31.3568 10.8825 31.5035 10.8531H31.6795C31.9728 10.9118 32.6768 11.0291 33.4102 11.0291C33.6448 11.0291 33.9088 10.9705 34.1435 10.8825C34.3782 10.7945 34.6128 10.6478 34.7888 10.4718C34.9942 10.2958 35.0822 10.1785 35.1995 9.97315C35.3168 9.76782 35.3755 9.56248 35.3755 9.29848V4.60515C35.3462 4.54648 34.6422 4.07715 34.6422 4.07715Z" fill="white"/>
<path d="M35.3164 4.63461L35.7564 4.37061" stroke="white" stroke-width="0.224987" stroke-miterlimit="3.864"/>
<path d="M46.0534 9.82648L45.7894 10.0025C45.7894 10.0025 45.5841 9.82648 45.5548 9.79715V4.66382L44.6748 4.07715L43.0614 5.13315L43.0028 5.04515C42.7974 4.45848 42.4454 4.25315 42.2988 4.13582L40.7734 5.16248L40.8321 5.25048C40.8321 5.25048 41.0081 5.13315 41.0961 5.10382C41.2428 5.25048 41.5068 5.71982 41.5068 5.89582V9.79715L41.0961 10.1491L42.2694 10.9411L43.4428 10.1785L43.0321 9.82648V5.51448L43.4428 5.25048L44.0294 5.89582V9.91448C44.0294 10.3838 44.4108 10.7358 44.6748 10.9411L46.1121 10.0025L46.0534 9.82648Z" fill="white"/>
<path d="M45.4679 4.7225L45.8785 4.4585M14.7559 10.1198L15.1665 9.85583" stroke="white" stroke-width="0.224987" stroke-miterlimit="3.864"/>
<path d="M17.863 9.88522C17.863 9.88522 17.4817 10.1199 17.423 10.1492L16.5723 9.53322V7.62655L18.655 6.21855L17.4523 4.01855L14.959 5.66122V9.91455C15.4283 10.2372 16.455 10.8532 16.455 10.8532L17.863 9.94389V9.88522ZM16.6017 5.04522L17.5697 6.71722L16.6017 7.36255V5.04522Z" fill="white"/>
<path d="M46.3457 10.1497L46.7564 9.88574" stroke="white" stroke-width="0.224987" stroke-miterlimit="3.864"/>
<path d="M78.8774 4.25318C78.8774 4.25318 77.8214 4.95718 77.6161 5.07452C77.5574 4.98652 77.4107 4.45852 76.8534 4.04785C76.6774 4.16518 75.3867 5.01585 75.3867 5.01585L75.4454 5.10385C75.4454 5.10385 75.6214 4.98652 75.6507 4.95718L75.7387 5.01585C75.9147 5.19185 76.0027 5.30918 76.0027 5.39718V9.53319L75.5627 9.88519L76.7654 10.8239C76.7654 10.8239 78.0561 9.91452 78.0267 9.94385L77.5574 9.53319V5.45585L77.8214 5.27985L78.408 6.04252C78.408 6.04252 78.3494 6.13052 78.3201 6.18918C78.2321 6.30652 78.0854 6.51185 78.0854 6.77585C78.0854 6.86385 78.2027 7.12785 78.3787 7.12785H78.408C78.5254 7.12785 78.5547 7.09852 78.6721 7.06918L78.7307 7.03985H78.6721C78.5841 7.01052 78.5254 6.98118 78.4667 6.95185H78.4374C78.3787 6.89318 78.2907 6.77585 78.2907 6.68785C78.2907 6.54118 78.3787 6.36518 78.5547 6.15985C78.848 5.80785 79.5521 5.30918 79.5521 5.30918L78.8774 4.25318Z" fill="white"/>
<path d="M131.589 5.10384L132 4.83984M127.424 10.1198L127.834 9.85584" stroke="white" stroke-width="0.224987" stroke-miterlimit="3.864"/>
<path d="M29.0693 9.53338C28.2773 8.97605 27.368 8.56538 26.5173 8.33072H26.488L27.4267 6.92272C28.6293 7.18672 29.4507 7.83205 29.4507 8.53605C29.4507 8.82938 29.3333 9.21072 29.0693 9.53338ZM26.8987 4.95738C26.7227 4.92805 26.1947 4.84005 26.0773 4.81072C25.6373 4.72272 23.496 4.07738 23.496 3.13872C23.496 2.05338 24.8747 2.05338 25.5493 2.05338C25.696 2.05338 27.2507 2.20005 28.0133 3.19738C27.984 3.25605 27.0747 4.66405 26.8987 4.95738ZM31.592 3.52005C31.7093 3.40272 31.8267 3.19738 31.8267 3.08005C31.8267 2.93338 31.768 2.81605 31.68 2.69872C31.592 2.58138 31.4453 2.52272 31.24 2.52272H31.1227C30.6533 2.52272 30.1547 2.81605 29.6267 3.34405C29.1573 3.78405 28.9813 4.13605 28.688 4.57605C28.4533 4.95738 28.336 5.13338 28.2773 5.22138C28.1893 5.22138 27.632 5.13338 27.1627 5.01605C27.3093 4.75205 27.7787 3.96005 28.3067 3.19738C28.688 2.64005 29.1573 2.14138 29.392 1.87738C29.4213 1.84805 29.4507 1.81872 29.5093 1.78938C29.5387 1.76005 29.5973 1.76005 29.5973 1.73072C29.5973 1.70138 29.5387 1.64272 29.5387 1.64272C29.5093 1.64272 29.48 1.64272 29.4507 1.67205C29.4213 1.70138 29.3627 1.70138 29.304 1.70138C29.216 1.70138 29.128 1.64272 28.9813 1.49605C28.5707 1.17338 27.8373 0.557384 26.5467 0.557384C24.3173 0.557384 22.9973 2.43472 23.0267 3.69605C23.0267 4.48805 23.1733 5.33872 23.584 5.69072C23.9947 6.07205 24.64 6.33605 25.8133 6.60005L25.9013 6.62938L25.7253 6.83472C25.432 7.09872 25.1973 7.33338 24.6107 7.36272C24.2587 7.36272 24.0827 7.24538 23.936 7.12805H23.9067C23.936 7.18672 24.024 7.33338 24.112 7.45072C24.2293 7.59738 24.376 7.68538 24.464 7.68538C24.4933 7.68538 24.64 7.71472 24.8747 7.65605C25.1973 7.56805 25.5493 7.30405 25.872 6.95205L26.136 6.65872L26.9573 6.80538C27.0453 6.83472 27.1333 6.83472 27.2213 6.86405L26.8693 7.39205C26.4293 8.03738 26.2827 8.24272 26.2827 8.24272C26.2827 8.24272 25.9893 8.21338 25.9013 8.18405C25.6667 8.12538 25.2853 8.12538 24.7573 8.12538C23.7307 8.12538 22.352 8.47738 21.5013 9.32805C21.3253 9.50405 21.1787 9.68005 21.0613 9.88538C20.856 10.2374 20.768 10.5894 20.768 11.0001C20.768 11.4987 21.0907 12.1147 22.0587 12.1147C23.32 12.1147 24.4347 10.912 25.0213 10.2961L25.1093 10.1787C25.2853 10.0027 25.3733 9.85605 25.432 9.79738C26.1067 9.97338 27.192 10.4427 28.16 11.0587C28.3653 10.8534 28.9227 10.1787 29.4507 9.38672C29.744 8.94672 30.4187 7.94938 30.448 7.18672C30.4773 6.45338 29.7733 5.54405 28.4827 5.28005C28.512 5.19205 28.6 5.07472 28.8053 4.78138C29.3333 3.96005 29.8027 3.10938 30.8293 3.10938C31.0053 3.08005 31.3867 3.10938 31.592 3.52005C31.592 3.49072 31.592 3.49072 31.592 3.52005ZM24.0533 10.9414C23.8187 11.1467 23.5547 11.3227 23.32 11.4694C23.056 11.616 22.8213 11.7041 22.5573 11.7627C22.4693 11.792 22.4107 11.792 22.352 11.8214C22.2347 11.8507 22.1467 11.8507 22.0293 11.8507H21.8827C21.3547 11.7921 21.0613 11.4987 21.0613 11.0587C21.0613 9.88538 23.0267 9.53338 23.7307 9.53338H23.8773C24.2 9.53338 24.4347 9.56272 25.08 9.68005H25.2267C24.9333 10.0614 24.6107 10.4134 24.288 10.7067C24.2293 10.7947 24.1413 10.8827 24.0533 10.9414ZM9.24 8.06672C8.33067 9.18138 7.50933 9.53338 7.392 9.56272V3.75472C8.41867 3.69605 9.152 3.10938 9.152 2.14138C9.152 2.02405 9.12267 1.87738 9.064 1.70138C8.77067 2.08272 8.272 2.17072 7.97867 2.17072C7.24533 2.17072 6.424 1.93605 5.57333 1.70138C4.69333 1.43738 3.75467 1.17338 2.84533 1.17338C1.52533 1.20272 0 1.81872 0 3.54938C0 4.16538 0.44 5.33872 1.46667 5.86672H1.496C1.496 5.86672 1.26133 6.42405 1.26133 6.89338C1.26133 8.56538 2.288 11.088 5.22133 11.088C5.92533 11.088 6.57067 10.9414 7.15733 10.6187C7.62667 10.3547 8.03733 10.0321 8.38933 9.59205C9.00533 8.82938 9.24 8.06672 9.24 8.06672ZM4.4 9.44538C4.45867 9.41605 4.51733 9.35738 4.51733 9.35738C5.48533 8.71205 5.95467 8.12538 5.95467 7.53872V3.60805C5.95467 3.60805 6.45333 3.75472 7.128 3.75472V9.65072C6.10133 10.0027 4.89867 9.73872 4.4 9.44538ZM4.488 8.47738C4.488 8.71205 4.4 8.97605 4.19467 9.32805L4.10667 9.26938C3.10933 8.62405 2.61067 7.36272 2.552 6.01338C2.49333 5.04538 3.02133 3.75472 3.75467 2.96272C3.84267 2.99205 4.25333 3.08005 4.45867 3.19738V8.47738H4.488ZM3.54933 2.90405C2.05333 4.40005 1.55467 5.72005 1.55467 5.72005L1.496 5.69072C1.056 5.48538 0.850667 4.92805 0.850667 4.45872C0.792 3.31472 1.61333 2.81605 2.69867 2.81605C3.02133 2.81605 3.40267 2.87472 3.54933 2.90405ZM86.592 4.01872C86.5627 4.04805 85.1547 4.98672 85.1547 4.98672L85.2133 5.10405C85.2133 5.10405 85.4187 4.98672 85.448 4.95738L85.536 5.01605C85.712 5.19205 85.7707 5.30938 85.7707 5.39738V10.0614L86.5333 10.8534L88 10.0614L87.8827 9.91472L87.6773 10.0321L87.3253 9.65072V4.66405C87.3253 4.66405 86.6213 4.04805 86.592 4.01872ZM85.7413 2.37605L86.68 1.64272L87.5013 2.43472L86.5627 3.10938L85.7413 2.37605ZM54.384 4.04805L53.1813 4.84005L53.592 5.19205V9.85605C53.592 10.2667 53.24 10.5601 52.7707 10.5601H52.5653V4.75205L51.5387 4.07738L50.2187 4.92805L50.2773 5.04538C50.2773 5.04538 50.512 4.89872 50.5707 4.86938C50.5707 4.86938 51.04 5.30938 51.04 5.72005V10.6187C50.512 10.7654 49.984 11.1761 49.984 12.1441C49.984 12.5841 50.3653 13.1707 51.0693 13.288C51.4507 13.3467 52.536 13.2001 52.5653 13.1707C52.712 13.1414 52.9173 13.1121 53.4453 13.0827C53.9147 13.0534 54.208 13.2587 54.3547 13.4054L54.472 13.5227C54.6187 13.376 54.736 13.0534 54.736 12.8481C54.736 12.3787 54.5307 12.0561 54.1787 11.8507C53.944 11.7041 53.6213 11.6747 53.2107 11.6747C53.1813 11.6747 53.064 11.6747 52.9173 11.7041C52.7413 11.7334 52.4773 11.7627 52.2427 11.7627C51.8907 11.792 51.568 11.8507 51.3333 11.88C51.1867 11.9094 51.0693 11.9094 51.04 11.9094C50.864 11.9094 50.7173 11.8507 50.6 11.7627C50.4827 11.6747 50.4533 11.528 50.4533 11.4694C50.4827 11.0587 50.9813 10.8827 51.1573 10.8534H51.392C51.7147 10.9121 52.36 11.0294 53.1227 11.0294C53.3573 11.0294 53.592 10.9707 53.856 10.8827C54.0907 10.7947 54.3253 10.6481 54.5013 10.4721C54.7067 10.2961 54.7947 10.1787 54.912 9.97338C55.0293 9.76805 55.088 9.56272 55.088 9.29872V4.60538C55.088 4.51738 54.384 4.04805 54.384 4.04805ZM103.605 6.98138C103.693 6.98138 103.869 6.98138 103.928 7.01072C104.016 7.04005 104.045 7.09872 104.075 7.15738C104.104 7.18672 104.104 8.65338 104.104 8.65338C104.104 8.94672 104.075 9.06405 104.016 9.15205C104.573 8.88805 105.189 8.33072 105.395 7.94938C105.629 7.50938 105.6 6.60005 105.571 5.66138C105.541 4.57605 105.512 3.37338 105.864 2.46405C105.453 2.72805 105.219 2.93338 104.896 3.25605C104.573 3.57872 104.339 3.87205 104.28 4.04805C104.075 4.57605 104.104 5.39738 104.104 5.57338C102.432 5.74938 102.109 6.51205 102.139 7.18672C102.139 7.21605 102.168 7.33338 102.168 7.42138L102.197 7.50938C102.52 7.09872 102.989 6.98138 103.605 6.98138ZM102.168 2.34672C102.227 2.34672 102.52 2.40538 103.165 2.55205C103.517 2.64005 103.957 2.72805 104.016 2.72805H104.368C104.72 2.72805 105.483 2.28805 106.392 1.52538L106.539 1.40805C106.333 1.49605 106.069 1.58405 105.805 1.58405C105.424 1.58405 104.984 1.43738 104.485 1.29072C103.987 1.11472 103.459 0.968051 102.989 0.968051C101.963 0.968051 101.288 1.58405 101.288 2.49338C101.288 2.69872 101.376 2.96272 101.523 3.13872C101.493 3.05072 101.464 2.96272 101.464 2.87472C101.493 2.55205 101.728 2.34672 102.168 2.34672ZM109.824 0.528051C110.059 0.645384 110.352 0.821384 110.528 1.17338C110.029 1.52538 109.384 2.02405 109.179 2.14138C108.797 1.70138 108.299 1.11472 107.917 1.08538C107.917 1.08538 107.653 1.08538 107.595 1.11472C107.507 1.17338 107.477 1.26138 107.477 1.34938V4.75205L108.915 3.84272L110.059 4.98672V8.80005C110.059 9.88538 109.296 11.0294 107.8 12.0267C108.269 12.1734 109.12 12.2907 110.088 12.0854C109.531 12.9067 108.915 13.3174 108.211 13.3174C108.123 13.3174 107.947 13.288 107.8 13.2294C106.979 12.936 106.421 13.1121 106.421 13.1121C107.125 12.5547 107.624 11.9974 107.947 11.4401C108.299 10.8827 108.475 10.1787 108.475 9.56272V5.83738L107.448 5.10405V5.51472C107.448 6.48272 107.448 7.33338 107.243 7.77338C107.067 8.12538 106.421 8.68272 105.864 8.97605C105.923 8.85872 105.952 8.74138 105.952 8.47738V3.63738C105.952 3.54938 105.981 3.13872 105.981 3.05072C106.069 2.40538 106.216 1.76005 107.184 1.08538C107.917 0.557384 108.533 0.352051 109.003 0.352051C109.296 0.352051 109.589 0.410717 109.824 0.528051ZM14.4907 10.1494C14.4027 10.2374 13.6693 10.7361 13.464 10.9121C13.2 11.0881 12.9653 11.3227 12.7893 11.5867C12.6427 11.8214 12.5547 12.0854 12.5547 12.3494C12.5547 12.4374 12.584 12.5547 12.6427 12.6134C12.7893 12.76 13.0533 12.8187 13.2 12.8187H13.376C13.464 12.8187 13.5227 12.8187 13.5813 12.7894V12.8187C13.552 12.9067 13.464 13.024 13.3173 13.0827C13.2 13.1414 13.0533 13.2001 12.936 13.2001C12.4373 13.2001 12.2613 12.76 12.2613 12.4667C12.2613 12.0267 12.8187 11.2641 13.1707 10.9121C13.1707 10.9121 12.5253 10.3841 12.5253 9.97338V5.77872L11.9387 5.13338L11.528 5.39738V9.73872C11.5573 9.76805 11.9387 10.0907 11.9387 10.0907L10.7653 10.8827L9.56267 10.0907L9.97333 9.73872V2.61072C9.97333 2.25872 9.944 1.76005 9.82667 1.61338C9.768 1.52538 9.65067 1.46672 9.53333 1.40805C9.65067 1.08538 9.82667 0.938717 10.1493 0.938717C10.2373 0.938717 10.472 0.968051 10.6187 1.05605C10.736 0.821384 10.9707 0.410717 11.44 0.410717C11.528 0.410717 11.704 0.469384 11.8213 0.557384C11.4693 0.938717 11.4987 1.78938 11.4987 2.28805V5.13338L13.112 4.07738L14.0507 4.69338V9.35738C14.08 9.70938 14.3147 9.94405 14.4907 10.1494ZM127.043 9.82672L127.101 9.91472L125.635 10.8534L124.491 10.0614L124.872 9.70938V2.43472C124.872 2.08272 124.843 1.58405 124.725 1.43738C124.667 1.34938 124.549 1.29072 124.432 1.23205C124.549 0.909384 124.725 0.762717 125.048 0.762717C125.136 0.762717 125.341 0.792051 125.488 0.880051C125.693 0.704051 125.869 0.381384 126.368 0.381384C126.456 0.381384 126.632 0.440051 126.749 0.528051C126.544 0.762717 126.456 1.11472 126.456 1.49605C126.427 3.49072 126.456 9.79738 126.456 9.79738L126.779 10.0907L127.043 9.82672Z" fill="white"/>
<path d="M13.9922 4.72264L14.4029 4.45864M40.2162 5.07464L40.6269 4.81064M36.0509 10.0613L36.4615 9.79731M55.0589 4.60531L55.4695 4.34131M74.7415 4.98664L75.1522 4.72264M70.5762 10.1786L70.9869 9.91464M87.2375 4.69331L87.6482 4.42931M85.4775 10.2373L85.8882 9.97331M97.9149 5.01598L98.3255 4.75198M123.347 4.81064L123.758 4.54664" stroke="white" stroke-width="0.224987" stroke-miterlimit="3.864"/>
<path d="M127.717 1.29105V3.25639C128.011 3.54972 128.715 4.19505 129.037 4.48839C128.744 4.75239 128.157 5.07505 127.688 5.19239C127.659 5.19239 127.747 5.33905 127.747 5.48572V9.91505L129.067 10.9124C130.328 10.0911 131.208 9.88572 131.648 9.79772V5.04572L127.717 1.29105ZM129.389 4.81105L130.181 5.57372V9.97372L129.272 9.32839V4.92839L129.389 4.81105ZM73.8319 4.01905C73.2746 4.40039 71.6906 5.07505 70.8399 5.25105C70.8106 5.25105 70.8986 5.39772 70.8986 5.54439V9.97372L72.2186 10.9711C73.4799 10.1497 74.3599 9.94439 74.7999 9.85639V4.92839L73.8319 4.01905ZM72.5119 4.95772L73.3332 5.83772V9.97372L72.4239 9.32839V5.01639L72.5119 4.95772ZM36.3439 1.26172V3.22705C36.6372 3.52039 37.3412 4.16572 37.6639 4.45905C37.3412 4.72305 36.7839 5.04572 36.3146 5.16305C36.2852 5.16305 36.3732 5.30972 36.3732 5.45639V9.88572L37.6932 10.8831C38.9546 10.0617 39.8346 9.85639 40.2746 9.76839V5.01639L36.3439 1.26172ZM37.9866 4.78172L38.7786 5.54439V9.94439L37.8692 9.29905V4.89905L37.9866 4.78172Z" fill="white"/>
<path d="M123.553 10.0321L123.963 9.76807" stroke="white" stroke-width="0.17776" stroke-miterlimit="3.864"/>
<path d="M77.9961 9.9441L78.2894 9.73877" stroke="white" stroke-width="0.224987" stroke-miterlimit="3.864"/>
<path d="M123.553 9.88522C123.465 9.76789 123.406 9.62122 123.406 9.50389V4.75189C123.318 4.66389 122.614 4.01855 122.614 4.01855L121.441 4.98655L120.531 4.10655L119.358 5.04522L120.179 5.95455C120.062 6.13055 119.71 6.80522 120.121 7.33322C120.209 7.45055 120.238 7.47989 120.238 7.47989L120.121 7.50922C119.387 7.74389 118.83 8.56522 118.83 9.18122C118.83 9.67989 119.065 10.5306 119.769 10.8826L121.851 9.59189V9.73855C121.881 10.0906 122.086 10.4719 122.438 10.9119L123.67 10.0319L123.553 9.88522ZM121.793 9.26922L120.795 9.88522C120.473 9.70922 120.238 9.44522 120.121 9.21056C119.974 8.94656 119.915 8.62389 119.915 8.35989C119.915 8.35989 119.915 8.03722 120.062 7.86122C120.121 7.77322 120.209 7.71456 120.238 7.68522C120.297 7.65589 120.385 7.62656 120.443 7.68522C120.825 7.97856 121.235 8.00789 121.763 8.00789L121.793 9.26922ZM121.441 5.22122L121.763 5.57322V7.77322C121.206 7.80256 120.766 7.68522 120.561 7.47989C119.71 6.68789 120.473 5.66122 121.441 5.22122ZM84.9499 9.82655L84.6859 10.0026C84.6859 10.0026 84.4806 9.82656 84.4513 9.79722V4.66389L83.5713 4.07722L81.9579 5.16255L81.8993 5.07455C81.6939 4.48789 81.3419 4.28255 81.1952 4.13589L79.6699 5.16255L79.7286 5.27989L79.9926 5.10389C80.1393 5.27989 80.4033 5.71989 80.4033 5.89589V9.79722L79.9926 10.1492L81.1659 10.9412L82.3393 10.1786L81.9286 9.82655V5.51455L82.3393 5.25055L82.9259 5.89589V9.91455C82.9259 10.3839 83.3073 10.7359 83.5713 10.9706L85.0086 10.0319L84.9499 9.82655Z" fill="white"/>
<path d="M84.3633 4.7225L84.8033 4.4585" stroke="white" stroke-width="0.224987" stroke-miterlimit="3.864"/>
<path d="M93.3386 9.82648L93.0746 10.0025C93.0746 10.0025 92.8693 9.82648 92.8399 9.79715V4.66382L91.9599 4.07715L90.3466 5.16248L90.2879 5.07448C90.0826 4.48781 89.7306 4.28248 89.5839 4.13582L88.0586 5.16248L88.1173 5.27982L88.3813 5.10382C88.5279 5.27982 88.7919 5.71982 88.7919 5.89582V9.79715L88.3813 10.1491L89.5546 10.9411L90.7279 10.1785L90.3173 9.82648V5.51448L90.7279 5.25048L91.3146 5.89582V9.91448C91.3146 10.3838 91.6959 10.7358 91.9599 10.9705L93.3973 10.0318L93.3386 9.82648Z" fill="white"/>
<path d="M92.7832 4.7225L93.1939 4.4585" stroke="white" stroke-width="0.224987" stroke-miterlimit="3.864"/>
<path d="M49.5153 9.88522L49.0753 10.1492L48.2246 9.53322V7.62655L50.3073 6.21855L49.134 4.01855L46.6406 5.66122V9.91455C47.11 10.2372 48.1366 10.8532 48.1366 10.8532L49.5446 9.94389L49.5153 9.88522ZM48.254 5.04522L49.222 6.71722L48.254 7.36255V5.04522Z" fill="white"/>
<path d="M110.617 10.1497L111.028 9.88574" stroke="white" stroke-width="0.224987" stroke-miterlimit="3.864"/>
<path d="M113.812 9.91452L113.372 10.1785C113.372 10.1785 112.551 9.56252 112.521 9.56252V7.65585L114.604 6.24785L113.431 4.04785L110.938 5.69052V9.94385C111.407 10.2665 112.433 10.8825 112.433 10.8825L113.871 9.97319L113.812 9.91452ZM112.521 5.07452L113.489 6.74652L112.521 7.39185V5.07452ZM118.212 4.25318C118.212 4.25318 117.156 4.95718 116.951 5.07452C116.892 4.98652 116.745 4.45852 116.188 4.04785C116.012 4.16518 114.721 5.01585 114.721 5.01585L114.78 5.10385C114.78 5.10385 114.956 4.98652 114.985 4.95718L115.073 5.01585C115.249 5.19185 115.337 5.30918 115.337 5.39718V9.53319L114.897 9.88519L116.1 10.8239C116.1 10.8239 117.391 9.91452 117.361 9.94385L116.892 9.53319V5.45585L117.156 5.27985L117.743 6.04252C117.743 6.04252 117.684 6.13052 117.655 6.18918C117.567 6.30652 117.42 6.51185 117.42 6.77585C117.42 6.86385 117.537 7.09852 117.713 7.09852H117.743C117.86 7.09852 117.889 7.06918 118.007 7.03985L118.065 7.01052H118.007C117.919 6.98118 117.86 6.95185 117.801 6.92252H117.772C117.713 6.86385 117.625 6.74652 117.625 6.65852C117.625 6.51185 117.713 6.33585 117.889 6.13052C118.183 5.77852 118.887 5.27985 118.887 5.27985L118.212 4.25318Z" fill="white"/>
<path d="M117.305 9.9441L117.598 9.73877" stroke="white" stroke-width="0.224987" stroke-miterlimit="3.864"/>
<path d="M95.4492 5.0161L96.5052 5.9841V9.53343L96.1826 9.79743H96.1532C95.7719 9.65077 95.3026 8.9761 95.3026 8.6241V5.1041L95.4492 5.0161ZM98.0013 9.1521V4.98677C98.0013 4.98677 97.2386 4.3121 96.9453 3.98943C96.6813 4.19477 95.1559 4.86943 93.6892 5.30943C93.7479 5.3681 93.8359 5.48544 93.8359 5.48544V8.06677C93.8359 8.50677 93.8359 9.03477 93.9826 9.5041C94.1586 10.0028 94.4519 10.4134 94.9213 10.6774L95.0386 10.7361L92.6332 12.7601C92.6626 12.7894 92.6626 13.0241 92.6626 13.0241C92.7212 13.0241 92.7799 12.9948 92.8679 12.9654C93.0439 12.8774 93.3372 12.7601 93.8066 12.7601C94.4519 12.7601 95.1559 13.2001 95.5079 13.4054C95.5666 13.4348 95.6253 13.4641 95.6546 13.4934C95.8599 13.4348 96.6226 12.8481 97.2973 12.2321C97.6786 11.8801 98.0012 11.5574 98.2359 11.2641C98.4999 10.9414 98.6466 10.6774 98.6466 10.5014C98.6466 10.2668 98.4999 10.0908 98.3239 9.88544C98.1773 9.6801 98.0013 9.44543 98.0013 9.1521ZM96.8866 12.3788L96.6813 12.2614C96.2119 11.9974 95.7426 11.7334 95.2146 11.7334H95.0679C94.8919 11.7628 94.6279 11.7921 94.3932 11.8508L94.3053 11.6748C94.3053 11.6748 96.1826 10.0908 96.3586 9.9441C96.5933 10.1201 96.9159 10.5308 97.0626 10.7654C97.2092 11.0001 97.2679 11.2348 97.2679 11.5281C97.2679 11.8214 97.2092 12.0268 96.8866 12.3788ZM60.3079 3.46143C60.1026 3.2561 60.0146 3.05077 60.0146 2.9041C60.0146 2.52277 60.3372 2.1121 60.9532 2.1121C61.0706 2.1121 61.3932 2.17077 61.8039 2.25877C61.9799 2.2881 62.1853 2.34677 62.2146 2.34677C62.7133 2.34677 63.5052 1.81877 64.0039 1.29077L64.0332 1.26143H64.0039C63.5639 1.26143 63.2412 1.11477 62.9186 0.997435C62.5959 0.850768 62.2439 0.733435 61.8039 0.733435C60.8359 0.733435 59.7213 1.46677 59.7213 2.4641C59.7213 2.66943 59.9266 3.28543 60.3079 3.46143ZM62.6252 9.70943C62.2439 9.70943 62.0679 9.70943 61.7452 9.62143C61.5106 9.56277 61.3052 9.53343 61.0999 9.5041H60.8066C59.6626 9.5041 59.2812 10.5308 59.2812 11.1468C59.2812 12.2321 59.7799 13.4054 61.1879 13.4054C61.5986 13.4054 62.5079 13.1708 62.5079 12.3201C62.5079 12.2908 62.4199 11.7921 62.1852 11.7921H62.0092C62.0386 11.9388 62.1559 12.1734 62.1559 12.2614C62.1559 12.8188 61.3932 13.1121 61.0706 13.1121C60.3079 13.1121 59.6039 12.6721 59.6039 11.7334C59.6039 11.2348 59.8679 10.6774 60.4546 10.6774C60.9826 10.6774 61.6279 11.0001 62.1266 11.0001C63.2999 10.9708 63.5346 10.2081 63.5639 8.6241C63.5052 8.85877 63.0946 9.70943 62.6252 9.70943ZM70.3399 9.73877C70.3399 9.73877 70.1932 9.8561 70.1052 9.8561C70.0759 9.8561 70.0172 9.82677 69.9586 9.79743C69.7532 9.65077 69.5186 9.35743 69.5186 8.94677V2.78677C69.5186 2.40543 69.6652 2.17077 69.7533 2.05343V2.0241C69.6066 1.90677 69.4012 1.7601 69.2252 1.5841C68.8732 1.29077 68.3746 0.909435 68.1106 0.704102C68.1106 0.704102 66.7026 1.8481 66.6146 1.9361L65.9692 1.4081C65.7052 1.17343 65.2946 0.850768 65.1772 0.762768C64.9719 0.880102 62.0386 3.37344 62.0386 3.37344V5.4561H61.9506C60.3079 5.66144 60.1906 6.92277 60.1906 7.3041C60.1906 7.36277 60.2492 7.53877 60.2786 7.68543V7.71477L60.3079 7.68543C60.4253 7.4801 60.5719 7.3041 60.7479 7.15743C60.9533 7.01077 61.1586 6.92277 61.3932 6.89344C61.9212 6.83477 61.9506 6.8641 61.9799 6.89344L62.0092 6.92277V9.1521C62.0092 9.38677 61.9799 9.47477 61.8919 9.5921C62.4492 9.29877 63.1239 8.74144 63.2999 8.3601C63.5346 7.89077 63.5052 7.89077 63.5052 6.92277V6.74677H64.8546V9.3281L64.3852 9.82677L65.9986 10.9121L67.4946 9.79743L67.2892 9.6801C67.2892 9.6801 67.2306 9.70943 67.2013 9.73877C67.1719 9.7681 67.1133 9.79743 67.0546 9.79743C66.9079 9.79743 66.4386 9.38677 66.3799 9.29877V6.74677H67.8466V9.18143C67.8466 9.35743 67.8466 9.65077 68.0226 10.0614C68.0519 10.1494 68.5212 10.7361 68.8733 10.9121C69.0199 10.8241 70.3986 9.82677 70.3986 9.82677L70.3399 9.73877ZM64.9132 5.33877H63.5639V2.52277L64.1213 2.05343L64.9132 2.7281V5.33877ZM67.9639 5.33877H66.4386V2.49343L66.9666 2.05343L67.9346 2.96277L67.9639 5.33877ZM105.276 9.09343C103.604 9.1521 102.255 10.6774 102.255 12.2028C102.255 12.8188 102.489 13.7281 103.369 13.7281C103.751 13.7281 104.015 13.5521 104.015 13.0534C104.015 12.9654 103.985 12.7894 103.927 12.7014C103.868 12.8774 103.575 13.2588 103.281 13.2588C102.636 13.2294 102.46 12.7308 102.46 12.2908C102.46 11.3521 103.135 10.2668 104.279 10.2668C104.895 10.2668 105.511 10.5308 106.127 11.2348C106.127 11.2348 107.447 10.2668 107.447 10.2374C106.713 9.29877 106.244 9.0641 105.276 9.09343Z" fill="white"/>
</g>
<defs>
<clipPath id="clip0_4666_81455">
<rect width="132" height="14.08" fill="white"/>
</clipPath>
</defs>
</svg>
