<svg width="96" height="41" viewBox="0 0 96 41" fill="none" xmlns="http://www.w3.org/2000/svg">
<rect width="95.333" height="40.8808" rx="20.4404" fill="#253649"/>
<g clip-path="url(#clip0_4512_24751)">
<path d="M28.4686 18.6905C28.682 18.048 28.7558 17.3673 28.6851 16.6939C28.6143 16.0205 28.4008 15.37 28.0586 14.7858C27.0176 12.9739 24.9255 12.0418 22.8823 12.4798C22.3165 11.8505 21.5952 11.3811 20.7906 11.1189C19.9861 10.8566 19.1267 10.8106 18.2988 10.9855C17.4708 11.1605 16.7035 11.5502 16.0739 12.1155C15.4442 12.6809 14.9744 13.402 14.7116 14.2063C14.0482 14.3424 13.4214 14.6184 12.8732 15.0161C12.3251 15.4138 11.8681 15.9239 11.5328 16.5123C10.4806 18.3213 10.7195 20.6032 12.1235 22.1552C11.9093 22.7974 11.8348 23.478 11.9048 24.1514C11.9749 24.8248 12.188 25.4754 12.5298 26.0599C13.572 27.8724 15.6655 28.8044 17.7098 28.3658C18.1593 28.872 18.7116 29.2764 19.3298 29.5521C19.948 29.8278 20.6179 29.9685 21.2948 29.9647C23.3891 29.9665 25.2445 28.6146 25.8842 26.6204C26.5475 26.4841 27.1742 26.2079 27.7223 25.8103C28.2705 25.4127 28.7275 24.9027 29.0629 24.3144C30.1025 22.5086 29.8626 20.2391 28.4686 18.6905ZM21.2948 28.7158C20.4588 28.7171 19.6491 28.4241 19.0076 27.8882L19.1204 27.8242L22.9198 25.6311C23.0144 25.5756 23.0929 25.4965 23.1477 25.4016C23.2024 25.3066 23.2315 25.199 23.2321 25.0894V19.7326L24.8384 20.6617C24.8545 20.6699 24.8657 20.6852 24.8685 20.7031V25.142C24.8644 27.114 23.2668 28.7116 21.2948 28.7158ZM13.6132 25.4355C13.194 24.7116 13.0434 23.8631 13.1881 23.0392L13.3009 23.1069L17.1041 25.3C17.1982 25.3553 17.3054 25.3844 17.4145 25.3844C17.5236 25.3844 17.6307 25.3553 17.7248 25.3L22.3706 22.6216V24.4762C22.3702 24.4858 22.3676 24.4952 22.3631 24.5036C22.3585 24.5121 22.3521 24.5194 22.3443 24.5251L18.496 26.7446C16.7859 27.7298 14.601 27.1439 13.6132 25.4355ZM12.6125 17.1594C13.0346 16.4308 13.7009 15.8752 14.4934 15.5907V20.1049C14.492 20.2139 14.5199 20.3214 14.5741 20.416C14.6284 20.5106 14.707 20.589 14.8019 20.6428L19.4252 23.31L17.8188 24.2391C17.8102 24.2437 17.8005 24.2461 17.7907 24.2461C17.7808 24.2461 17.7711 24.2437 17.7625 24.2391L13.9216 22.0235C12.2149 21.0342 11.6296 18.8511 12.6125 17.1406V17.1594ZM25.809 20.2253L21.1706 17.5318L22.7732 16.6064C22.7819 16.6018 22.7916 16.5994 22.8015 16.5994C22.8113 16.5994 22.821 16.6018 22.8297 16.6064L26.6705 18.8259C27.2578 19.1648 27.7365 19.6637 28.0508 20.2644C28.3652 20.8651 28.5022 21.5429 28.4457 22.2186C28.3893 22.8942 28.1419 23.5399 27.7323 24.0802C27.3227 24.6205 26.7679 25.0331 26.1325 25.2699V20.7557C26.1292 20.6468 26.0976 20.5407 26.0409 20.4477C25.9842 20.3547 25.9043 20.2781 25.809 20.2253ZM27.4077 17.8215L27.2949 17.7537L23.4992 15.5418C23.4045 15.4863 23.2968 15.457 23.187 15.457C23.0772 15.457 22.9694 15.4863 22.8748 15.5418L18.2326 18.2203V16.3657C18.2316 16.3563 18.2332 16.3468 18.2372 16.3382C18.2411 16.3296 18.2474 16.3222 18.2552 16.3168L22.096 14.1011C22.6846 13.762 23.3577 13.5975 24.0364 13.6269C24.7151 13.6562 25.3714 13.8782 25.9286 14.2669C26.4857 14.6556 26.9207 15.1948 27.1827 15.8217C27.4446 16.4485 27.5226 17.1369 27.4077 17.8065V17.8215H27.4077ZM17.3562 21.1093L15.7499 20.1839C15.7418 20.179 15.735 20.1725 15.7298 20.1647C15.7246 20.1569 15.7211 20.148 15.7197 20.1388V15.7112C15.7206 15.0319 15.9149 14.367 16.2797 13.7941C16.6446 13.2212 17.165 12.764 17.7801 12.476C18.3953 12.1879 19.0797 12.081 19.7534 12.1676C20.427 12.2542 21.0622 12.5308 21.5844 12.965L21.4716 13.029L17.6722 15.2221C17.5776 15.2776 17.4991 15.3567 17.4444 15.4516C17.3896 15.5466 17.3605 15.6542 17.3599 15.7638L17.3562 21.1094V21.1093ZM18.2289 19.2284L20.2979 18.0359L22.3706 19.2284V21.6134L20.3054 22.8059L18.2327 21.6134L18.2289 19.2284Z" fill="white"/>
</g>
<g clip-path="url(#clip1_4512_24751)">
<path d="M42.8396 14.9388C40.4034 14.9388 38.4102 16.9014 38.4102 19.3001C38.4102 21.6988 40.4034 23.6614 42.8396 23.6614C45.2758 23.6614 47.269 21.7109 47.269 19.3001C47.269 16.8893 45.2881 14.9388 42.8396 14.9388ZM42.8396 22.0986C41.3262 22.0986 40.1081 20.875 40.1081 19.3001C40.1081 17.7252 41.3262 16.5016 42.8396 16.5016C44.353 16.5016 45.5711 17.7252 45.5711 19.3001C45.5711 20.875 44.353 22.0986 42.8396 22.0986Z" fill="white"/>
<path d="M51.7523 17.3617C50.9526 17.3617 50.1774 17.6767 49.7714 18.2097V17.4828H48.1719V25.9631H49.7714V22.8981C50.1774 23.3948 50.928 23.6613 51.7523 23.6613C53.4748 23.6613 54.8283 22.3287 54.8283 20.5115C54.8283 18.6943 53.4748 17.3617 51.7523 17.3617ZM51.4816 22.2924C50.5712 22.2924 49.7591 21.5897 49.7591 20.5115C49.7591 19.4333 50.5712 18.7307 51.4816 18.7307C52.3921 18.7307 53.2042 19.4333 53.2042 20.5115C53.2042 21.5897 52.3921 22.2924 51.4816 22.2924Z" fill="white"/>
<path d="M58.5901 17.3617C56.8429 17.3617 55.4648 18.7064 55.4648 20.5115C55.4648 22.3166 56.6706 23.6613 58.6393 23.6613C60.2511 23.6613 61.2846 22.7043 61.6045 21.6261H60.0419C59.8451 22.0743 59.2914 22.3893 58.627 22.3893C57.8026 22.3893 57.1751 21.8199 57.0275 21.0082H61.6784V20.3904C61.6784 18.7428 60.5095 17.3617 58.5901 17.3617ZM57.0398 19.8937C57.212 19.1304 57.8518 18.6337 58.627 18.6337C59.4513 18.6337 60.0788 19.1668 60.1527 19.8937H57.0398Z" fill="white"/>
<path d="M65.9355 17.3617C65.2219 17.3617 64.4714 17.6767 64.1269 18.1976V17.4828H62.5273V23.5402H64.1269V20.2813C64.1269 19.3364 64.6436 18.7185 65.4803 18.7185C66.2554 18.7185 66.6738 19.3 66.6738 20.1117V23.5402H68.2733V19.8573C68.2733 18.3551 67.3382 17.3617 65.9355 17.3617Z" fill="white"/>
<path d="M72.3687 15.0601L68.8867 23.5403H70.597L71.3352 21.6868H75.2971L76.0353 23.5403H77.7702L74.3128 15.0601H72.3687ZM71.8889 20.2815L73.3162 16.7319L74.7311 20.2815H71.8889Z" fill="white"/>
<path d="M80.046 15.0601H78.4219V23.5403H80.046V15.0601Z" fill="white"/>
</g>
<defs>
<clipPath id="clip0_4512_24751">
<rect width="18.8242" height="19.1183" fill="white" transform="translate(10.8809 10.8812)"/>
</clipPath>
<clipPath id="clip1_4512_24751">
<rect width="41.6888" height="11.117" fill="white" transform="translate(38.4102 14.882)"/>
</clipPath>
</defs>
</svg>
