<svg width="103" height="41" viewBox="0 0 103 41" fill="none" xmlns="http://www.w3.org/2000/svg">
<rect width="102.384" height="40.8808" rx="20.4404" fill="#253649"/>
<g clip-path="url(#clip0_4512_24723)">
<mask id="mask0_4512_24723" style="mask-type:alpha" maskUnits="userSpaceOnUse" x="10" y="10" width="20" height="20">
<path d="M19.9393 11.1946C20.0857 10.7987 20.6477 10.8051 20.7851 11.2041L21.1691 12.3185C21.7427 13.9832 22.6814 15.4985 23.9164 16.7534C25.1514 18.0083 26.6516 18.9711 28.3069 19.5712L29.5453 20.0201C29.9394 20.163 29.9403 20.72 29.5466 20.864L28.3052 21.3184C26.6949 21.9077 25.2323 22.8408 24.0191 24.0527C22.806 25.2646 21.8714 26.7263 21.2805 28.336L20.7946 29.6595C20.6509 30.0512 20.0973 30.0522 19.9521 29.6611L19.4447 28.2949C18.8514 26.6968 17.919 25.2462 16.7116 24.0429C15.5042 22.8395 14.0505 21.9119 12.4505 21.3238L11.1868 20.8594C10.7953 20.7155 10.7943 20.1622 11.1852 20.0169L12.4736 19.5379C14.0669 18.9455 15.5135 18.016 16.7145 16.8129C17.9154 15.6098 18.8423 14.1615 19.4319 12.5671L19.9393 11.1946Z" fill="#3186FF"/>
</mask>
<g mask="url(#mask0_4512_24723)">
<g filter="url(#filter0_f_4512_24723)">
<path d="M21.3382 30.641C28.2829 30.641 33.9126 26.0739 33.9126 20.4402C33.9126 14.8065 28.2829 10.2395 21.3382 10.2395C14.3935 10.2395 8.76367 14.8065 8.76367 20.4402C8.76367 26.0739 14.3935 30.641 21.3382 30.641Z" fill="white"/>
</g>
<g filter="url(#filter1_f_4512_24723)">
<path d="M13.0314 24.6745C15.4585 24.6745 17.426 22.5921 17.426 20.0232C17.426 17.4544 15.4585 15.3719 13.0314 15.3719C10.6043 15.3719 8.63672 17.4544 8.63672 20.0232C8.63672 22.5921 10.6043 24.6745 13.0314 24.6745Z" fill="white"/>
</g>
<g filter="url(#filter2_f_4512_24723)">
<path d="M12.131 25.0593C14.5581 25.0593 16.5256 22.9768 16.5256 20.408C16.5256 17.8392 14.5581 15.7567 12.131 15.7567C9.70388 15.7567 7.73633 17.8392 7.73633 20.408C7.73633 22.9768 9.70388 25.0593 12.131 25.0593Z" fill="white"/>
</g>
<g filter="url(#filter3_f_4512_24723)">
<path d="M23.3269 11.5549C21.9155 16.1741 15.0829 19.4994 12.3242 19.5422L20.1191 6.64697L23.3269 11.5549Z" fill="white"/>
</g>
<g filter="url(#filter4_f_4512_24723)">
<path d="M23.1042 10.0792C21.6928 14.6984 14.8603 18.0237 12.1016 18.0665L19.8965 5.17126L23.1042 10.0792Z" fill="white"/>
</g>
<g filter="url(#filter5_f_4512_24723)">
<path d="M23.3581 28.8124C21.9467 24.1932 15.1142 20.8679 12.3555 20.8251L20.1504 33.7203L23.3581 28.8124Z" fill="white"/>
</g>
<g filter="url(#filter6_f_4512_24723)">
<path d="M23.487 31.4429C22.0756 26.8237 15.2431 23.4984 12.4844 23.4556L20.2793 36.3508L23.487 31.4429Z" fill="white"/>
</g>
</g>
</g>
<path d="M84.2518 25.9311V17.9099H85.8315V25.9311H84.2518ZM85.0417 16.936C84.7656 16.936 84.5279 16.8389 84.3285 16.6446C84.1342 16.4452 84.0371 16.205 84.0371 15.9238C84.0371 15.6426 84.1342 15.4074 84.3285 15.2183C84.5279 15.024 84.7656 14.9269 85.0417 14.9269C85.3331 14.9269 85.5759 15.024 85.7702 15.2183C85.9644 15.4074 86.0616 15.6426 86.0616 15.9238C86.0616 16.205 85.9644 16.4452 85.7702 16.6446C85.5759 16.8389 85.3331 16.936 85.0417 16.936Z" fill="white"/>
<path d="M75.748 25.9309V17.9097H77.2894V19.3283L77.09 19.1213H77.2894C77.5399 18.7174 77.8978 18.3877 78.363 18.1321C78.8333 17.8713 79.342 17.741 79.889 17.741C80.7888 17.741 81.4892 18.017 81.9902 18.5692C82.4963 19.1213 82.7493 19.86 82.7493 20.7853V25.9309H81.1773V21.1151C81.1773 20.5272 81.0342 20.0568 80.7479 19.7041C80.4616 19.3462 80.0091 19.1673 79.3906 19.1673C78.8231 19.1673 78.3374 19.3743 77.9336 19.7884C77.5297 20.1974 77.3277 20.7265 77.3277 21.3758V25.9309H75.748Z" fill="white"/>
<path d="M72.5409 25.9311V17.9099H74.1206V25.9311H72.5409ZM73.3307 16.936C73.0547 16.936 72.817 16.8389 72.6176 16.6446C72.4233 16.4452 72.3262 16.205 72.3262 15.9238C72.3262 15.6426 72.4233 15.4074 72.6176 15.2183C72.817 15.024 73.0547 14.9269 73.3307 14.9269C73.6221 14.9269 73.865 15.024 74.0592 15.2183C74.2535 15.4074 74.3506 15.6426 74.3506 15.9238C74.3506 16.205 74.2535 16.4452 74.0592 16.6446C73.865 16.8389 73.6221 16.936 73.3307 16.936Z" fill="white"/>
<path d="M59.0039 25.9309V17.9097H60.5453V19.29L60.3842 19.1136H60.5529C60.7932 18.7149 61.1357 18.3877 61.5805 18.1321C62.0253 17.8713 62.5314 17.741 63.0989 17.741C63.6817 17.741 64.2006 17.8943 64.6555 18.2011C65.1157 18.5078 65.4147 18.8938 65.5528 19.359C65.8697 18.8273 66.2634 18.426 66.7337 18.1551C67.204 17.879 67.7229 17.741 68.2904 17.741C69.1544 17.741 69.8292 18.0145 70.3148 18.5615C70.8056 19.1034 71.051 19.8114 71.051 20.6856V25.9309H69.479V21.1151C69.479 20.5067 69.3358 20.0313 69.0496 19.6888C68.7684 19.3462 68.3671 19.175 67.8456 19.175C67.3088 19.175 66.8359 19.382 66.427 19.7961C66.018 20.2051 65.8135 20.7393 65.8135 21.3988V25.9309H64.2414V21.1304C64.2414 20.5323 64.1009 20.0568 63.8197 19.7041C63.5385 19.3462 63.1321 19.1673 62.6004 19.1673C62.0585 19.1673 61.5856 19.3769 61.1817 19.7961C60.783 20.2102 60.5836 20.7444 60.5836 21.3988V25.9309H59.0039Z" fill="white"/>
<path d="M54.2966 26.0996C53.1208 26.0996 52.1316 25.7059 51.3289 24.9186C50.5263 24.1313 50.125 23.1319 50.125 21.9203C50.125 20.7138 50.5238 19.7169 51.3213 18.9296C52.1239 18.1372 53.0978 17.741 54.243 17.741C55.4188 17.741 56.3671 18.1039 57.0879 18.8299C57.8139 19.5558 58.1769 20.4735 58.1769 21.5829V22.296H50.9379V21.1918H56.6508C56.6253 20.5936 56.3927 20.0977 55.953 19.7041C55.5185 19.3053 54.951 19.1059 54.2506 19.1059C53.5247 19.1059 52.9035 19.3718 52.3872 19.9035C51.876 20.4351 51.6203 21.11 51.6203 21.9279C51.6203 22.7715 51.8913 23.454 52.4332 23.9754C52.9802 24.4969 53.6141 24.7576 54.335 24.7576C54.7082 24.7576 55.0354 24.7065 55.3165 24.6042C55.5977 24.4969 55.8508 24.3435 56.0757 24.1441C56.3058 23.9396 56.5409 23.6431 56.7812 23.2546L58.0005 23.8527C57.7091 24.41 57.3896 24.8445 57.0419 25.1563C56.6994 25.4631 56.3083 25.6982 55.8687 25.8618C55.429 26.0203 54.905 26.0996 54.2966 26.0996Z" fill="white"/>
<path d="M44.1588 26.0997C42.5944 26.0946 41.2729 25.5604 40.1942 24.497C39.1155 23.4286 38.5762 22.084 38.5762 20.4634C38.5762 18.7764 39.1104 17.4088 40.1789 16.3608C41.2473 15.3077 42.5791 14.7811 44.1741 14.7811C44.8336 14.7811 45.4011 14.8501 45.8765 14.9882C46.3571 15.1262 46.7865 15.3077 47.1648 15.5326C47.5431 15.7525 47.8524 15.9876 48.0927 16.2381C48.3381 16.4835 48.4608 16.6062 48.4608 16.6062L47.3642 17.7411C47.3642 17.7411 47.2645 17.6415 47.0651 17.4421C46.8709 17.2427 46.6383 17.0638 46.3673 16.9053C46.1015 16.7417 45.7922 16.6062 45.4394 16.4989C45.0867 16.3915 44.67 16.3378 44.1895 16.3378C43.0852 16.3378 42.1497 16.7187 41.3828 17.4804C40.6211 18.2421 40.2402 19.2442 40.2402 20.4864C40.2402 21.6827 40.6134 22.6643 41.3598 23.4311C42.1062 24.1929 43.075 24.5737 44.2662 24.5737C45.4931 24.5737 46.4133 24.2516 47.0268 23.6075C47.6454 22.9634 47.9879 22.1965 48.0544 21.307V21.353H44.1205V19.9957H49.6724L49.6801 20.7242C49.6801 22.309 49.1765 23.6024 48.1694 24.6044C47.1674 25.6013 45.8305 26.0997 44.1588 26.0997Z" fill="white"/>
<defs>
<filter id="filter0_f_4512_24723" x="6.96675" y="8.44258" width="28.7423" height="23.9953" filterUnits="userSpaceOnUse" color-interpolation-filters="sRGB">
<feFlood flood-opacity="0" result="BackgroundImageFix"/>
<feBlend mode="normal" in="SourceGraphic" in2="BackgroundImageFix" result="shape"/>
<feGaussianBlur stdDeviation="0.898461" result="effect1_foregroundBlur_4512_24723"/>
</filter>
<filter id="filter1_f_4512_24723" x="5.44219" y="12.1774" width="15.1781" height="15.6917" filterUnits="userSpaceOnUse" color-interpolation-filters="sRGB">
<feFlood flood-opacity="0" result="BackgroundImageFix"/>
<feBlend mode="normal" in="SourceGraphic" in2="BackgroundImageFix" result="shape"/>
<feGaussianBlur stdDeviation="1.59726" result="effect1_foregroundBlur_4512_24723"/>
</filter>
<filter id="filter2_f_4512_24723" x="4.5418" y="12.5622" width="15.1781" height="15.6917" filterUnits="userSpaceOnUse" color-interpolation-filters="sRGB">
<feFlood flood-opacity="0" result="BackgroundImageFix"/>
<feBlend mode="normal" in="SourceGraphic" in2="BackgroundImageFix" result="shape"/>
<feGaussianBlur stdDeviation="1.59726" result="effect1_foregroundBlur_4512_24723"/>
</filter>
<filter id="filter3_f_4512_24723" x="9.12969" y="3.45244" width="17.391" height="19.2843" filterUnits="userSpaceOnUse" color-interpolation-filters="sRGB">
<feFlood flood-opacity="0" result="BackgroundImageFix"/>
<feBlend mode="normal" in="SourceGraphic" in2="BackgroundImageFix" result="shape"/>
<feGaussianBlur stdDeviation="1.59726" result="effect1_foregroundBlur_4512_24723"/>
</filter>
<filter id="filter4_f_4512_24723" x="8.90703" y="1.97674" width="17.391" height="19.2843" filterUnits="userSpaceOnUse" color-interpolation-filters="sRGB">
<feFlood flood-opacity="0" result="BackgroundImageFix"/>
<feBlend mode="normal" in="SourceGraphic" in2="BackgroundImageFix" result="shape"/>
<feGaussianBlur stdDeviation="1.59726" result="effect1_foregroundBlur_4512_24723"/>
</filter>
<filter id="filter5_f_4512_24723" x="9.16094" y="17.6305" width="17.391" height="19.2843" filterUnits="userSpaceOnUse" color-interpolation-filters="sRGB">
<feFlood flood-opacity="0" result="BackgroundImageFix"/>
<feBlend mode="normal" in="SourceGraphic" in2="BackgroundImageFix" result="shape"/>
<feGaussianBlur stdDeviation="1.59726" result="effect1_foregroundBlur_4512_24723"/>
</filter>
<filter id="filter6_f_4512_24723" x="9.28985" y="20.261" width="17.391" height="19.2843" filterUnits="userSpaceOnUse" color-interpolation-filters="sRGB">
<feFlood flood-opacity="0" result="BackgroundImageFix"/>
<feBlend mode="normal" in="SourceGraphic" in2="BackgroundImageFix" result="shape"/>
<feGaussianBlur stdDeviation="1.59726" result="effect1_foregroundBlur_4512_24723"/>
</filter>
<clipPath id="clip0_4512_24723">
<rect width="18.99" height="19.1183" fill="white" transform="translate(10.8809 10.8812)"/>
</clipPath>
</defs>
</svg>
