<svg width="107" height="41" viewBox="0 0 107 41" fill="none" xmlns="http://www.w3.org/2000/svg">
<rect width="106.403" height="40.8833" rx="20.4417" fill="#253649"/>
<g clip-path="url(#clip0_4499_24656)">
<path d="M14.6178 23.5531L18.3644 21.4508L18.4271 21.2676L18.3644 21.1663H18.1812L17.5543 21.1278L15.4135 21.0699L13.557 20.9927L11.7584 20.8963L11.3052 20.7998L10.8809 20.2405L10.9242 19.9608L11.3052 19.7053L11.8501 19.7535L13.0555 19.8354L14.8637 19.9608L16.1753 20.0379L18.1185 20.2405H18.4271L18.4705 20.1151L18.3644 20.0379L18.2825 19.9608L16.4115 18.6926L14.3864 17.3522L13.3256 16.5806L12.7517 16.19L12.4625 15.8236L12.3371 15.0232L12.8579 14.4494L13.557 14.4977L13.7354 14.5459L14.4443 15.0907L15.9583 16.2625L17.9353 17.7186L18.2246 17.9597L18.3403 17.8777L18.3548 17.8199L18.2246 17.6028L17.1493 15.6596L16.0017 13.6827L15.4905 12.8629L15.3556 12.3712C15.3074 12.1686 15.2736 11.9998 15.2736 11.7925L15.8667 10.9872L16.1945 10.8812L16.9854 10.9873L17.3181 11.2766L17.8099 12.4001L18.6055 14.1698L19.8399 16.5759L20.2016 17.2895L20.3944 17.9501L20.4668 18.1526H20.5922V18.0369L20.6933 16.682L20.8814 15.0184L21.0647 12.8775L21.1274 12.2748L21.4263 11.5515L22.0194 11.1609L22.4823 11.3827L22.8632 11.9276L22.8102 12.2795L22.5836 13.7502L22.14 16.0552L21.8506 17.5981H22.0194L22.2123 17.4052L22.9934 16.3685L24.3049 14.7291L24.8836 14.0781L25.5587 13.3596L25.9926 13.0173H26.8124L27.415 13.9142L27.1451 14.84L26.3013 15.9105L25.602 16.8169L24.5991 18.1671L23.9722 19.2472L24.0301 19.334L24.1797 19.3195L26.4459 18.8374L27.6707 18.6155L29.1317 18.3648L29.7923 18.6734L29.8646 18.9868L29.6042 19.6282L28.0419 20.0138L26.2096 20.3803L23.4804 21.0265L23.4467 21.0506L23.4853 21.0988L24.7148 21.2145L25.2405 21.2435H26.5279L28.9243 21.4219L29.5512 21.8366L29.9273 22.3429L29.8646 22.7286L28.9002 23.2204L27.5983 22.9118L24.5606 22.1886L23.519 21.9282H23.3744V22.015L24.2423 22.8636L25.8335 24.3006L27.825 26.1521L27.9262 26.6102L27.6707 26.9718L27.4006 26.9333L25.6503 25.6169L24.9752 25.0238L23.4467 23.7364H23.3455V23.8713L23.6974 24.3873L25.5587 27.184L25.6551 28.0423L25.5201 28.322L25.0379 28.4908L24.5075 28.3943L23.4177 26.8658L22.2943 25.1443L21.3877 23.6013L21.2769 23.6641L20.7416 29.4262L20.4909 29.7203L19.9122 29.9421L19.4301 29.5757L19.1745 28.9826L19.43 27.8108L19.7386 26.2823L19.9894 25.0672L20.216 23.558L20.351 23.0565L20.3414 23.0227L20.2305 23.0372L19.0926 24.5995L17.3615 26.9381L15.9921 28.4039L15.6642 28.5341L15.0952 28.24L15.1482 27.7144L15.4664 27.2467L17.3614 24.8358L18.5042 23.3409L19.242 22.4779L19.2372 22.3525H19.1938L14.1597 25.6218L13.2628 25.7374L12.877 25.3759L12.9252 24.7827L13.1085 24.5898L14.6225 23.5483L14.6178 23.5531Z" fill="#D97757"/>
</g>
<path d="M45.1982 25.6664C43.2679 25.6664 41.9479 24.5894 41.3253 22.932C41.0001 22.0683 40.8391 21.1514 40.8524 20.2283C40.8524 17.4477 42.0986 15.5163 44.8526 15.5163C46.7029 15.5163 47.8444 16.3236 48.4947 18.2508H49.2865L49.1788 15.5933C48.0711 14.8784 46.6865 14.5163 45.0023 14.5163C42.6289 14.5163 40.6104 15.5779 39.4873 17.4928C38.9067 18.5041 38.6124 19.6539 38.6339 20.8201C38.6339 22.9473 39.638 24.8315 41.5222 25.8777C42.554 26.4285 43.711 26.7023 44.8803 26.6695C46.7183 26.6695 48.1768 26.3197 49.4691 25.7084L49.8035 22.7781H48.9963C48.5122 24.1166 47.9347 24.9207 46.9767 25.3474C46.508 25.5587 45.9152 25.6664 45.2003 25.6664H45.1982ZM53.5246 15.5163L53.6015 14.2086H53.0559L50.625 14.9389V15.3348L51.702 15.8343V24.9802C51.702 25.6028 51.383 25.7413 50.5481 25.8459V26.5146H54.6826V25.8459C53.8446 25.7423 53.5287 25.6038 53.5287 24.9802V15.5194L53.5246 15.5153V15.5163ZM69.9672 26.6705H70.2861L73.0821 26.1403V25.4561L72.6903 25.4254C72.037 25.3638 71.8677 25.2295 71.8677 24.6951V19.818L71.9447 18.2528H71.5026L68.8605 18.6334V19.3021L69.1179 19.3483C69.8328 19.4519 70.0451 19.6519 70.0451 20.1524V24.4982C69.361 25.0284 68.7066 25.3638 67.9302 25.3638C67.0686 25.3638 66.5342 24.9259 66.5342 23.9022V19.8211L66.6112 18.2559H66.1578L63.5116 18.6364V19.3052L63.7844 19.3513C64.4993 19.4549 64.7116 19.6549 64.7116 20.1555V24.1669C64.7116 25.8664 65.6727 26.6746 67.204 26.6746C68.3733 26.6746 69.3312 26.052 70.0502 25.1864L69.9733 26.6746L69.9692 26.6705H69.9672ZM62.2828 21.2591C62.2828 19.0857 61.129 18.2518 59.0448 18.2518C57.2068 18.2518 55.8714 19.0129 55.8714 20.2744C55.8714 20.6509 56.0057 20.9401 56.2785 21.1401L57.6786 20.9555C57.617 20.5329 57.5863 20.2744 57.5863 20.1667C57.5863 19.4519 57.9668 19.0898 58.7402 19.0898C59.8828 19.0898 60.4592 19.8939 60.4592 21.1863V21.6088L57.575 22.4745C56.6139 22.7361 56.0673 22.9627 55.7021 23.494C55.5083 23.8192 55.4149 24.1935 55.4334 24.571C55.4334 25.8018 56.2796 26.6705 57.7258 26.6705C58.772 26.6705 59.6992 26.1977 60.5064 25.3013C60.7946 26.1977 61.2366 26.6705 62.0254 26.6705C62.6634 26.6705 63.2408 26.4131 63.7557 25.9095L63.6018 25.3792C63.3793 25.4408 63.1639 25.4715 62.9362 25.4715C62.4941 25.4715 62.2828 25.1218 62.2828 24.4366V21.2601V21.2591ZM58.5904 25.4397C57.8017 25.4397 57.3135 24.9823 57.3135 24.1781C57.3135 23.6325 57.5709 23.3125 58.1207 23.1279L60.4592 22.3853V24.6315C59.7135 25.1966 59.2745 25.4387 58.5904 25.4387V25.4397ZM82.9358 26.1392V25.4551L82.5398 25.4243C81.8865 25.3628 81.7203 25.2284 81.7203 24.6941V15.5174L81.7973 14.2096H81.2475L78.8167 14.9399V15.3358L79.8936 15.8353V18.8426C79.2874 18.4272 78.5623 18.219 77.8279 18.2508C75.4125 18.2508 73.5283 20.0888 73.5283 22.8396C73.5283 25.1054 74.8822 26.6705 77.113 26.6705C78.2669 26.6705 79.271 26.1095 79.8936 25.2397L79.8167 26.6705H80.1398L82.9358 26.1403V26.1392ZM77.8741 19.1626C79.0279 19.1626 79.8936 19.8314 79.8936 21.0622V24.5238C79.3623 25.053 78.6392 25.3443 77.8895 25.331C76.2361 25.331 75.3971 24.0233 75.3971 22.2776C75.3971 20.3165 76.355 19.1626 77.8741 19.1626ZM88.8477 20.8939C88.6323 19.8785 88.0098 19.3021 87.1441 19.3021C85.8517 19.3021 84.9553 20.2755 84.9553 21.6714C84.9553 23.7371 86.0476 25.0756 87.8128 25.0756C88.9903 25.0633 90.0734 24.4264 90.655 23.4027L91.1698 23.5412C90.9391 25.3331 89.3165 26.6716 87.3236 26.6716C84.985 26.6716 83.3737 24.9412 83.3737 22.4796C83.3737 20.018 85.1235 18.2528 87.462 18.2528C89.2077 18.2528 90.4385 19.3031 90.8355 21.1257L84.743 22.9945V22.1719L88.8467 20.8991V20.895L88.8477 20.8939Z" fill="white"/>
<defs>
<clipPath id="clip0_4499_24656">
<rect width="19.0464" height="19.1208" fill="white" transform="translate(10.8809 10.8812)"/>
</clipPath>
</defs>
</svg>
