<svg width="115" height="41" viewBox="0 0 115 41" fill="none" xmlns="http://www.w3.org/2000/svg">
<rect width="114.372" height="40.8808" rx="20.4404" fill="#253649"/>
<path d="M20.4401 12.6737V28.2074M16.3496 17.4824V13.5034L20.4401 17.4824M20.4401 17.4824L16.3496 21.6394V27.3777L20.4401 23.2577M20.4401 17.4824L24.5307 13.5034V17.4824" stroke="#20808D" stroke-width="0.544062" stroke-linecap="round" stroke-linejoin="round"/>
<path d="M16.3474 23.3863H14.6387V17.4823H26.2371V23.3863H24.5284" stroke="#20808D" stroke-width="0.544062" stroke-linecap="round" stroke-linejoin="round"/>
<path d="M20.4414 17.4823L24.5319 21.6393V27.3776L20.4414 23.2576" stroke="#20808D" stroke-width="0.544062" stroke-linecap="round" stroke-linejoin="round"/>
<path d="M44.6132 18.2475C44.9558 17.6067 45.4348 17.1132 46.0525 16.7659C46.6691 16.4198 47.3925 16.2464 48.2223 16.2464C49.0521 16.2464 49.7391 16.4169 50.3141 16.7584C50.8896 17.0999 51.3201 17.5524 51.605 18.1157C51.8898 18.6797 52.0326 19.2974 52.0326 19.9689V20.8992H45.5776C45.6296 21.7058 45.9017 22.3472 46.394 22.8228C46.8864 23.2989 47.5474 23.5364 48.3777 23.5364C49.0515 23.5364 49.5681 23.3995 49.9252 23.1256C50.2834 22.8517 50.5446 22.472 50.711 21.9855H52.1891C51.9921 22.7402 51.5905 23.3948 50.9838 23.9478C50.3776 24.5014 49.5086 24.7776 48.3783 24.7776C47.5278 24.7776 46.7783 24.6042 46.13 24.2581C45.4822 23.912 44.9812 23.418 44.6288 22.7766C44.2763 22.1352 44.1 21.3805 44.1 20.5114C44.1 19.6424 44.2711 18.8883 44.6137 18.2469L44.6132 18.2475ZM50.4776 19.736C50.4776 19.0328 50.2962 18.4827 49.9333 18.084C49.5704 17.6858 49.0001 17.4871 48.2217 17.4871C47.496 17.4871 46.902 17.6806 46.4408 18.0684C45.9792 18.4561 45.6966 19.0125 45.5932 19.736H50.4776ZM53.9718 16.4787V17.7662C53.9718 17.839 54.0082 17.8748 54.081 17.8748C54.1226 17.8748 54.1532 17.8644 54.1746 17.8436C54.196 17.8228 54.2162 17.7818 54.2364 17.7199C54.5057 16.8722 55.1748 16.4481 56.2432 16.4481H56.9274V17.8436H56.0404C55.3453 17.8436 54.827 18.0088 54.4843 18.3399C54.1417 18.671 53.9706 19.2136 53.9706 19.9689V24.5447H52.5705V16.4782H53.9718V16.4787ZM65.1482 22.8459C64.7802 23.4919 64.3029 23.9756 63.717 24.2957C63.131 24.6158 62.5006 24.7764 61.8269 24.7764C60.4996 24.7764 59.5658 24.2495 59.0267 23.1943C58.9851 23.1123 58.9331 23.0707 58.8712 23.0707C58.8094 23.0707 58.7776 23.1019 58.7776 23.1637V27.4911H57.3775V16.4793H58.7776V17.8598C58.7776 17.9216 58.8088 17.9528 58.8712 17.9528C58.9336 17.9528 58.9851 17.9112 59.0267 17.8291C59.5658 16.774 60.4996 16.247 61.8269 16.247C62.5006 16.247 63.131 16.4077 63.717 16.7278C64.3029 17.0479 64.7796 17.5316 65.1482 18.1781C65.5163 18.8242 65.7007 19.6031 65.7007 20.512C65.7007 21.421 65.5163 22.1993 65.1482 22.8459ZM63.5303 18.2856C63.0166 17.7529 62.34 17.4865 61.5004 17.4865C60.6608 17.4865 59.9836 17.7529 59.4704 18.2856C58.9567 18.8184 58.7684 19.5603 58.7684 20.5114C58.7684 21.4626 58.9567 22.2051 59.4704 22.7373C59.9841 23.27 60.6608 23.5364 61.5004 23.5364C62.34 23.5364 63.0172 23.2706 63.5303 22.7373C64.044 22.2045 64.3006 21.4626 64.3006 20.5114C64.3006 19.5603 64.044 18.8184 63.5303 18.2856ZM67.7323 13.3763V24.5442H66.3322V13.3775H67.7323V13.3763ZM68.8851 18.2469C69.2272 17.6061 69.7068 17.1126 70.3245 16.7653C70.941 16.4192 71.6645 16.2459 72.4937 16.2459C73.3229 16.2459 74.0111 16.4163 74.586 16.7578C75.1615 17.0993 75.592 17.5518 75.8769 18.1152C76.1624 18.6791 76.3045 19.2968 76.3045 19.9683V20.8986H69.8495C69.9015 21.7053 70.1737 22.3466 70.666 22.8222C71.1583 23.2983 71.8194 23.5358 72.6497 23.5358C73.3235 23.5358 73.8395 23.3989 74.1971 23.125C74.5554 22.8511 74.8166 22.4715 74.983 21.9849H76.4611C76.2641 22.7396 75.8619 23.3943 75.2557 23.9473C74.6496 24.5008 73.7805 24.777 72.6503 24.777C71.7997 24.777 71.0503 24.6037 70.4019 24.2575C69.7542 23.9114 69.2532 23.4174 68.9007 22.776C68.5482 22.1346 68.372 21.3799 68.372 20.5109C68.372 19.6418 68.543 18.8877 68.8857 18.2463H68.8851V18.2469ZM74.7495 19.7354C74.7495 19.0322 74.5681 18.4821 74.2052 18.0834C73.8423 17.6853 73.272 17.4865 72.4937 17.4865C71.7685 17.4865 71.1739 17.6801 70.7128 18.0678C70.2511 18.4555 69.9691 19.012 69.8651 19.7354H74.7495ZM75.6816 24.2339L78.8857 20.278L76.2571 16.7885V16.4782H77.7971L79.9911 19.4869L82.3556 16.4782H83.9261V16.8041L80.9087 20.5114L83.6933 24.2339V24.5442H82.1846L79.8044 21.3025L77.2539 24.5442H75.6828V24.2339H75.6816ZM85.959 13.8531V15.5987H84.3237V13.8531H85.959ZM85.874 24.5447H84.4734V16.4787H85.874V24.5447ZM86.3155 16.4787H87.8387V14.3072H89.2393V16.4787H90.8423L91.2358 17.661H89.2393V21.5198C89.2393 22.0468 89.226 22.4374 89.2 22.691C89.174 22.9447 89.1613 23.0973 89.1613 23.1487C89.1613 23.2215 89.1816 23.2781 89.2232 23.3191C89.2648 23.3607 89.3214 23.381 89.3948 23.381C89.4462 23.381 89.5993 23.3683 89.8536 23.3423C90.1072 23.3163 90.499 23.3035 91.0283 23.3035H91.5726V24.5442H90.484C89.5918 24.5442 88.9279 24.3275 88.4928 23.8924C88.0577 23.4578 87.8392 22.7968 87.8392 21.9069V17.6604H86.3166V16.4782H86.3155V16.4787ZM91.2641 16.4787H92.6913L95.009 23.2458C95.0408 23.329 95.0899 23.4382 95.2488 23.4382C95.4077 23.4382 95.4568 23.3284 95.488 23.2458L97.8057 16.4787H99.1371V16.789L96.2375 25.4906C95.9884 26.2355 95.6389 26.755 95.1881 27.0496C94.7369 27.3443 94.2128 27.4917 93.3408 27.4917H91.8477V26.2511H92.9837C93.3466 26.2511 93.6419 26.2638 93.8701 26.2898C94.0978 26.3158 94.2434 26.3285 94.3058 26.3285C94.482 26.3285 94.6011 26.2511 94.664 26.0962L95.0997 24.9174C95.1517 24.7938 95.1564 24.7007 95.1153 24.6378C95.0945 24.5962 95.0691 24.5702 95.0379 24.5603C95.0067 24.5499 94.9599 24.5447 94.8981 24.5447H93.9493L91.2652 16.4793H91.2641V16.4787ZM43.2102 22.8592C42.8421 23.5052 42.3648 23.9889 41.7789 24.309C41.193 24.6291 40.5625 24.7897 39.8888 24.7897C38.5615 24.7897 37.6277 24.2627 37.0886 23.2076C37.047 23.1256 36.995 23.084 36.9332 23.084C36.8713 23.084 36.8395 23.1152 36.8395 23.177V27.5044H35.4395V16.4926H36.8395V17.8731C36.8395 17.9349 36.8707 17.9661 36.9332 17.9661C36.9956 17.9661 37.047 17.9245 37.0886 17.8424C37.6271 16.7873 38.5615 16.2603 39.8888 16.2603C40.5625 16.2603 41.193 16.421 41.7789 16.7411C42.3648 17.0612 42.8415 17.5448 43.2102 18.1909C43.5783 18.8369 43.7626 19.6158 43.7626 20.5253C43.7626 21.4348 43.5783 22.2132 43.2102 22.8592ZM41.5922 18.2989C41.0785 17.7662 40.4019 17.4998 39.5623 17.4998C38.7227 17.4998 38.0455 17.7662 37.5324 18.2989C37.0187 18.8317 36.8303 19.5736 36.8303 20.5247C36.8303 21.4759 37.0187 22.2184 37.5324 22.7506C38.0461 23.2833 38.7227 23.5497 39.5623 23.5497C40.4019 23.5497 41.0791 23.2839 41.5922 22.7506C42.1059 22.2178 42.3625 21.4759 42.3625 20.5247C42.3625 19.5736 42.1059 18.8317 41.5922 18.2989Z" fill="white"/>
</svg>
