<svg width="105" height="35" viewBox="0 0 105 35" fill="none" xmlns="http://www.w3.org/2000/svg">
<g clip-path="url(#clip0_2008_11450)">
<path d="M34.5546 11.642L36.8585 18.0988L39.3291 11.3692C39.5261 10.8235 39.708 10.4446 39.905 10.2172C40.1021 9.98989 40.3749 9.88379 40.7538 9.88379C40.9243 9.88046 41.0938 9.91088 41.2524 9.97332C41.4111 10.0357 41.5559 10.1289 41.6784 10.2476C41.7981 10.3541 41.8938 10.4849 41.9591 10.6312C42.0244 10.7775 42.0579 10.9361 42.0573 11.0963C42.0566 11.2449 42.0362 11.3927 41.9967 11.5359C41.9553 11.6953 41.9047 11.8522 41.8451 12.0058C41.7845 12.1573 41.7239 12.3241 41.6481 12.5059L38.9198 19.2659C38.844 19.463 38.7379 19.7055 38.6167 20.0086C38.515 20.2785 38.3773 20.5334 38.2074 20.7665C38.0642 20.971 37.878 21.1417 37.6618 21.2666C37.4191 21.394 37.1476 21.4567 36.8736 21.4485C36.5291 21.4667 36.1881 21.3709 35.9036 21.1757C35.6833 21.0162 35.502 20.8089 35.3731 20.5694C35.2518 20.3572 35.07 19.9177 34.7971 19.2811L32.0992 12.5969C32.0386 12.4302 31.9779 12.2634 31.9022 12.0967C31.8375 11.928 31.7819 11.756 31.7354 11.5814C31.6949 11.4332 31.6745 11.2803 31.6748 11.1267C31.6767 10.9208 31.7401 10.7203 31.8567 10.5507C31.9788 10.3578 32.145 10.1967 32.3417 10.0808C32.5489 9.96087 32.7843 9.89811 33.0238 9.89895C33.4936 9.89895 33.8271 10.0354 33.9938 10.3082C34.2326 10.7292 34.4208 11.1769 34.5546 11.642Z" fill="#214873"/>
<path d="M44.7998 9.00445C44.4281 9.01183 44.0667 8.88237 43.7843 8.64069C43.6401 8.51225 43.527 8.35274 43.4534 8.1742C43.3799 7.99565 43.3479 7.80274 43.3599 7.61001C43.354 7.42249 43.3889 7.23592 43.4621 7.0632C43.5354 6.89049 43.6453 6.73574 43.7843 6.60966C44.0556 6.35606 44.4132 6.21517 44.7846 6.21558C45.1433 6.2154 45.4911 6.33847 45.7698 6.56419C46.0578 6.8067 46.1942 7.14015 46.1942 7.59486C46.2038 7.78594 46.1722 7.97686 46.1016 8.15468C46.031 8.33251 45.923 8.49308 45.785 8.62553C45.5194 8.8769 45.1653 9.01311 44.7998 9.00445Z" fill="#214873"/>
<path d="M46.2099 11.475V19.69C46.2099 20.266 46.0734 20.6904 45.8006 20.9784C45.6703 21.1211 45.5108 21.2343 45.333 21.3101C45.1552 21.3859 44.9632 21.4227 44.7699 21.4179C44.5772 21.4248 44.3854 21.3875 44.2093 21.3086C44.0333 21.2298 43.8777 21.1116 43.7544 20.9632C43.4968 20.6601 43.3604 20.2357 43.3604 19.69V11.5659C43.3604 11.0051 43.4968 10.5807 43.7544 10.2927C43.8817 10.1512 44.0388 10.0397 44.2145 9.96634C44.3901 9.89294 44.5798 9.85947 44.7699 9.86834C44.9621 9.86086 45.1537 9.8949 45.3316 9.96813C45.5094 10.0414 45.6694 10.1521 45.8006 10.2927C46.087 10.6178 46.234 11.0424 46.2099 11.475Z" fill="#214873"/>
<path d="M50.6503 17.3105V19.6901C50.6503 20.2661 50.5139 20.6905 50.241 20.9784C50.107 21.1141 49.9471 21.2216 49.7708 21.2945C49.5946 21.3673 49.4055 21.4042 49.2148 21.4027C49.024 21.4013 48.8355 21.3617 48.6603 21.2862C48.4852 21.2108 48.3269 21.1009 48.1949 20.9633C47.9372 20.6753 47.8008 20.2357 47.8008 19.6749V11.763C47.8008 10.4898 48.2555 9.85325 49.1801 9.85325C49.6499 9.85325 49.9985 10.0048 50.1956 10.308C50.3926 10.6111 50.5139 11.0506 50.5442 11.6266C50.8139 11.1299 51.1677 10.6837 51.59 10.308C51.9949 9.99022 52.5007 9.82882 53.0148 9.85325C53.6247 9.85674 54.2239 10.0131 54.7578 10.308C55.3186 10.6111 55.6066 11.0052 55.6066 11.4902C55.6111 11.6518 55.5809 11.8125 55.5182 11.9615C55.4555 12.1105 55.3616 12.2444 55.2428 12.3541C55.0391 12.5627 54.7613 12.6825 54.4698 12.6876C54.2103 12.6521 53.9559 12.5859 53.712 12.4906C53.3696 12.3745 53.0123 12.3081 52.651 12.2935C52.2829 12.2754 51.9212 12.3942 51.6355 12.627C51.3457 12.8864 51.1354 13.2228 51.0292 13.597C50.8686 14.0937 50.7669 14.6075 50.7261 15.1279C50.6806 15.7341 50.6503 16.4617 50.6503 17.3105Z" fill="#214873"/>
<path d="M57.319 10.1108H57.6373V8.41321C57.6373 7.9585 57.6524 7.59473 57.6676 7.33706C57.6873 7.10369 57.7544 6.87678 57.8646 6.67016C57.9786 6.47077 58.1467 6.30783 58.3497 6.20029C58.5616 6.07827 58.8024 6.01545 59.0469 6.01841C59.4158 6.02256 59.7688 6.1692 60.0321 6.42765C60.2272 6.60087 60.3558 6.83671 60.3958 7.09455C60.4515 7.46065 60.4769 7.83073 60.4716 8.20101V10.1411H61.5175C61.9267 10.1411 62.2298 10.232 62.442 10.4291C62.5443 10.5203 62.6256 10.6326 62.6805 10.7581C62.7355 10.8837 62.7627 11.0196 62.7603 11.1566C62.7733 11.3206 62.7369 11.4847 62.6559 11.6279C62.5749 11.771 62.4529 11.8867 62.3056 11.9599C62.0025 12.1115 61.5781 12.1873 61.0173 12.1873H60.4716V17.4164C60.4669 17.7606 60.4821 18.1047 60.5171 18.4471C60.5383 18.6591 60.6228 18.8598 60.7596 19.0231C60.896 19.1746 61.1082 19.2504 61.4265 19.2504C61.6563 19.2425 61.8847 19.212 62.1086 19.1595C62.3273 19.1071 62.5507 19.0767 62.7755 19.0685C62.8921 19.0697 63.0073 19.0945 63.1141 19.1414C63.2209 19.1883 63.3171 19.2563 63.3969 19.3414C63.4865 19.4304 63.5569 19.5369 63.6038 19.6542C63.6508 19.7715 63.6732 19.8971 63.6697 20.0234C63.6697 20.4781 63.4272 20.8267 62.927 21.0692C62.4269 21.3118 61.7145 21.433 60.7748 21.433C59.8805 21.433 59.2136 21.2814 58.7589 20.9783C58.313 20.6934 57.9931 20.2487 57.8646 19.7354C57.7081 19.0445 57.6368 18.3369 57.6524 17.6286V12.1721H57.2735C56.8643 12.1721 56.546 12.0812 56.3338 11.8841C56.2301 11.7908 56.1479 11.6761 56.0929 11.5478C56.038 11.4196 56.0115 11.2809 56.0155 11.1415C56.0094 11.0024 56.0365 10.864 56.0945 10.7375C56.1524 10.611 56.2397 10.5001 56.3489 10.4139C56.5611 10.2169 56.8946 10.1108 57.319 10.1108Z" fill="#214873"/>
<path d="M71.6584 19.8113V19.4476C71.3466 19.8503 70.985 20.2119 70.5822 20.5237C70.2142 20.811 69.7987 21.0315 69.3545 21.1754C68.8627 21.3212 68.3518 21.3927 67.8388 21.3876C67.197 21.4001 66.5619 21.2544 65.9897 20.9632C65.4656 20.698 65.0289 20.2876 64.7317 19.781C64.3831 19.1747 64.2012 18.3108 64.2012 17.174V11.5508C64.2012 10.9748 64.3224 10.5504 64.5801 10.2776C64.7074 10.1361 64.8645 10.0246 65.0401 9.95122C65.2157 9.87782 65.4055 9.84435 65.5956 9.85322C65.7901 9.84524 65.9841 9.87898 66.1645 9.95218C66.3449 10.0254 66.5075 10.1363 66.6414 10.2776C66.8991 10.5656 67.0355 10.99 67.0355 11.5508V16.0979C67.0273 16.6532 67.0832 17.2075 67.2022 17.75C67.2791 18.154 67.4869 18.5215 67.7934 18.7958C68.1213 19.0637 68.5377 19.199 68.9604 19.1747C69.4432 19.1765 69.9146 19.0282 70.3094 18.7503C70.719 18.4796 71.0403 18.095 71.234 17.6439C71.4007 17.2346 71.4765 16.3555 71.4765 15.0066V11.5508C71.4765 10.99 71.6129 10.5656 71.8706 10.2776C72.0009 10.1358 72.1607 10.0243 72.3388 9.95102C72.5169 9.87769 72.7089 9.84431 72.9012 9.85322C73.0914 9.84435 73.2811 9.87782 73.4567 9.95122C73.6324 10.0246 73.7895 10.1361 73.9168 10.2776C74.1744 10.5656 74.2957 10.99 74.2957 11.5508V19.781C74.2957 20.3267 74.1744 20.7207 73.9319 20.9936C73.813 21.1283 73.6657 21.2348 73.5005 21.3056C73.3354 21.3764 73.1566 21.4096 72.977 21.4028C72.796 21.41 72.6157 21.3754 72.4502 21.3018C72.2846 21.2282 72.1382 21.1176 72.0222 20.9784C71.7796 20.7056 71.6584 20.3115 71.6584 19.8113Z" fill="#214873"/>
<path d="M83.1783 19.8114C82.574 20.2989 81.9059 20.7018 81.1927 21.0088C80.5093 21.2844 79.7771 21.4184 79.0404 21.4029C78.374 21.4185 77.7136 21.2729 77.1155 20.9785C76.5943 20.7104 76.1546 20.3074 75.8423 19.8114C75.5416 19.3297 75.3839 18.7726 75.3876 18.2047C75.3692 17.4718 75.6354 16.7601 76.1303 16.2192C76.6153 15.6735 77.2974 15.3098 78.1613 15.1127C78.3432 15.0673 78.7828 14.9763 79.5103 14.8247C80.2378 14.6732 80.8441 14.5519 81.3443 14.4307C81.8445 14.3094 82.4053 14.1578 82.9964 13.9911C82.9661 13.2484 82.8145 12.6876 82.5417 12.339C82.2689 11.9904 81.7232 11.8085 80.8896 11.8085C80.162 11.8085 79.6316 11.9146 79.2678 12.1117C78.881 12.3282 78.5572 12.6416 78.3281 13.0211C78.0704 13.4303 77.8885 13.688 77.7824 13.8244C77.6763 13.9608 77.449 14.0214 77.0852 14.0214C76.7801 14.0228 76.4845 13.9153 76.2516 13.7183C76.139 13.6207 76.0493 13.4995 75.9891 13.3632C75.9288 13.227 75.8994 13.0791 75.903 12.9301C75.916 12.4002 76.1023 11.8891 76.4334 11.4751C76.7821 11.0052 77.3429 10.6111 78.0855 10.308C78.8282 10.0048 79.768 9.85327 80.8896 9.85327C82.1324 9.85327 83.1176 10.0048 83.83 10.2928C84.4969 10.5436 85.0404 11.0435 85.3457 11.6873C85.6337 12.3239 85.7853 13.1726 85.7853 14.2185V15.916C85.7853 16.3859 85.7701 16.9012 85.7701 17.4621C85.7775 18.0271 85.8643 18.5884 86.0278 19.1293C86.2097 19.7053 86.3006 20.0842 86.3006 20.2509C86.2948 20.4065 86.2553 20.559 86.1846 20.6977C86.1139 20.8364 86.0138 20.9581 85.8914 21.0542C85.6394 21.2866 85.3096 21.4164 84.9668 21.418C84.6365 21.3992 84.3266 21.2524 84.1029 21.0088C83.7416 20.6535 83.4306 20.2507 83.1783 19.8114ZM82.9812 15.7038C82.3872 15.9083 81.7794 16.0704 81.1624 16.1889C80.3742 16.3556 79.8134 16.4769 79.5103 16.5678C79.1873 16.6604 78.8877 16.8206 78.6312 17.0377C78.4945 17.1582 78.3867 17.308 78.3158 17.4759C78.245 17.6439 78.2129 17.8256 78.222 18.0077C78.2199 18.2137 78.2622 18.4178 78.3459 18.6061C78.4295 18.7943 78.5527 18.9624 78.707 19.099C79.0572 19.4085 79.5131 19.5714 79.9802 19.5537C80.522 19.5576 81.057 19.4329 81.5413 19.1899C81.9755 18.9803 82.339 18.6484 82.5872 18.2351C82.8448 17.8107 82.9661 17.0983 82.9661 16.1131V15.7038H82.9812Z" fill="#214873"/>
<path d="M87.8008 19.6902V7.36761C87.8008 6.79165 87.922 6.36725 88.1797 6.07927C88.3081 5.93415 88.4673 5.81942 88.6455 5.7434C88.8238 5.66738 89.0167 5.63196 89.2104 5.63972C89.4044 5.63568 89.5972 5.67122 89.777 5.74419C89.9568 5.81716 90.1199 5.92602 90.2562 6.06411C90.5139 6.3521 90.6503 6.77649 90.6503 7.35245V19.675C90.6503 20.251 90.5139 20.6754 90.2562 20.9634C90.125 21.104 89.965 21.2147 89.7871 21.288C89.6093 21.3612 89.4177 21.3953 89.2255 21.3878C89.033 21.3931 88.8417 21.355 88.6659 21.2763C88.4901 21.1976 88.3343 21.0803 88.21 20.9331C87.9372 20.6754 87.8008 20.2358 87.8008 19.6902Z" fill="#214873"/>
<path d="M18.9268 15.9616C19.7639 15.9616 20.4425 15.283 20.4425 14.4459C20.4425 13.6088 19.7639 12.9302 18.9268 12.9302C18.0897 12.9302 17.4111 13.6088 17.4111 14.4459C17.4111 15.283 18.0897 15.9616 18.9268 15.9616Z" fill="#214873"/>
<path d="M28.0977 19.0079C28.9348 19.0079 29.6134 18.3293 29.6134 17.4923C29.6134 16.6552 28.9348 15.9766 28.0977 15.9766C27.2606 15.9766 26.582 16.6552 26.582 17.4923C26.582 18.3293 27.2606 19.0079 28.0977 19.0079Z" fill="#33DED8"/>
<path d="M21.9893 12.8998C22.8264 12.8998 23.505 12.2212 23.505 11.3841C23.505 10.547 22.8264 9.86841 21.9893 9.86841C21.1522 9.86841 20.4736 10.547 20.4736 11.3841C20.4736 12.2212 21.1522 12.8998 21.9893 12.8998Z" fill="#214873"/>
<path d="M15.8653 12.8998C16.7024 12.8998 17.381 12.2212 17.381 11.3841C17.381 10.547 16.7024 9.86841 15.8653 9.86841C15.0282 9.86841 14.3496 10.547 14.3496 11.3841C14.3496 12.2212 15.0282 12.8998 15.8653 12.8998Z" fill="#214873"/>
<path d="M25.0499 15.9616C25.887 15.9616 26.5656 15.283 26.5656 14.4459C26.5656 13.6088 25.887 12.9302 25.0499 12.9302C24.2128 12.9302 23.5342 13.6088 23.5342 14.4459C23.5342 15.283 24.2128 15.9616 25.0499 15.9616Z" fill="#33DED8"/>
<path d="M28.0977 12.8998C28.9348 12.8998 29.6134 12.2212 29.6134 11.3841C29.6134 10.547 28.9348 9.86841 28.0977 9.86841C27.2606 9.86841 26.582 10.547 26.582 11.3841C26.582 12.2212 27.2606 12.8998 28.0977 12.8998Z" fill="#33DED8"/>
<path d="M39.9805 26.4348C39.9805 24.6463 41.3446 23.4944 42.8451 23.4944C44.4063 23.4944 45.2096 24.4493 45.4218 25.3587L44.4063 25.6921C44.2699 25.1465 43.8303 24.5554 42.8603 24.5554C42.0115 24.5554 41.1324 25.1616 41.1324 26.4348C41.1324 27.6322 41.9812 28.2991 42.8754 28.2991C43.2301 28.3152 43.5795 28.2098 43.8661 28.0003C44.1527 27.7909 44.3593 27.4899 44.4518 27.1472L45.4824 27.4503C45.2702 28.3143 44.4518 29.3601 42.8754 29.3601C41.2991 29.3601 39.9805 28.2233 39.9805 26.4348Z" fill="#33DED8"/>
<path d="M49.5297 23.4944C51.0606 23.4944 52.4247 24.616 52.4247 26.4348C52.4247 28.2537 51.0606 29.3601 49.5297 29.3601C47.9989 29.3601 46.6348 28.2385 46.6348 26.4348C46.6348 24.6312 48.014 23.4944 49.5297 23.4944ZM49.5297 28.2991C50.4088 28.2991 51.2879 27.6929 51.2879 26.4197C51.2879 25.1465 50.3937 24.5402 49.5297 24.5402C48.6658 24.5402 47.7715 25.1465 47.7715 26.4197C47.7715 27.6929 48.6658 28.2991 49.5297 28.2991Z" fill="#33DED8"/>
<path d="M60.1395 23.6157H61.2611L59.6999 29.2541H58.5783L57.29 25.2375L56.0016 29.2541H54.8649L53.3037 23.6157H54.4708L55.5015 27.4959L56.7443 23.6157H57.8811L59.1391 27.5111L60.1395 23.6157Z" fill="#33DED8"/>
<path d="M65.02 23.4944C66.5508 23.4944 67.9149 24.616 67.9149 26.4348C67.9149 28.2537 66.5508 29.3601 65.02 29.3601C63.4891 29.3601 62.125 28.2385 62.125 26.4348C62.125 24.6312 63.4891 23.4944 65.02 23.4944ZM65.02 28.2991C65.8991 28.2991 66.7782 27.6929 66.7782 26.4197C66.7782 25.1465 65.8839 24.5402 65.02 24.5402C64.156 24.5402 63.2618 25.1465 63.2618 26.4197C63.2618 27.6929 64.156 28.2991 65.02 28.2991Z" fill="#33DED8"/>
<path d="M71.1883 27.0715H70.6123V29.239H69.5059V23.6006H71.7036C72.7949 23.6006 73.4921 24.3584 73.4921 25.3285C73.5051 25.6908 73.3932 26.0465 73.1752 26.3362C72.9573 26.6259 72.6464 26.832 72.2947 26.92L73.5073 29.2238H72.2947L71.1883 27.0715ZM71.5066 26.1318C72.0674 26.1318 72.3857 25.8135 72.3857 25.3588C72.3857 24.9041 72.0674 24.5706 71.5066 24.5706H70.6123V26.1318H71.5066Z" fill="#33DED8"/>
<path d="M76.9174 26.9048L76.2202 27.6778V29.239H75.1289V23.6006H76.2202V26.147L78.4786 23.6006H79.9185L77.6904 26.056L79.9337 29.239H78.5544L76.9174 26.9048Z" fill="#33DED8"/>
<path d="M81.3135 29.2541V23.6157H84.845V24.6464H82.4199V25.9347H84.6177V26.9048H82.4199V28.2083H84.845V29.2389H81.3135V29.2541Z" fill="#33DED8"/>
<path d="M88.24 27.0715H87.6641V29.239H86.5576V23.6006H88.7554C89.8467 23.6006 90.5439 24.3584 90.5439 25.3285C90.5568 25.6908 90.4449 26.0465 90.227 26.3362C90.009 26.6259 89.6982 26.832 89.3465 26.92L90.559 29.2238H89.3313L88.24 27.0715ZM88.5583 26.1318C89.1191 26.1318 89.4374 25.8135 89.4374 25.3588C89.4374 24.9041 89.1191 24.5706 88.5583 24.5706H87.6641V26.1318H88.5583Z" fill="#33DED8"/>
</g>
<defs>
<clipPath id="clip0_2008_11450">
<rect width="76.3" height="23.7206" fill="white" transform="translate(14.3496 5.63965)"/>
</clipPath>
</defs>
</svg>
