<svg width="59" height="32" viewBox="0 0 58.157 31.431" fill="none" xmlns="http://www.w3.org/2000/svg">
<g transform="translate(29.0785 15.7155) rotate(-162.65) scale(1 -1) translate(-28.0588 -7.7004)">
<path d="M50.5721 8.13513C33.6738 17.3022 17.0827 17.6239 0 10.0651C1.22897 8.37639 2.27359 9.01967 3.07242 9.34132C9.21727 11.5125 15.5465 11.7537 21.8142 12.0754C30.8471 12.5579 39.3885 9.8238 47.7455 5.4011C48.1142 5.24027 48.4214 4.91863 49.1588 4.27533C44.9188 3.14955 40.6789 5.07946 36.992 2.82791C37.0534 2.50625 37.0534 2.10418 37.1149 1.78252C39.8801 1.54129 42.7067 1.30005 45.4719 0.978396C48.2371 0.656745 50.9408 0.254696 53.706 0.0134578C55.7338 -0.147368 56.594 1.13923 55.8567 3.55162C54.9349 6.68771 53.6445 9.58256 52.477 12.5578C52.3541 12.8795 52.1698 13.2816 51.924 13.4424C51.248 13.764 50.5721 13.8445 49.8347 14.0857C49.7118 13.2816 49.4046 12.397 49.466 11.6733C49.5889 10.7084 50.0191 9.90421 50.5721 8.13513Z" fill="#008F2B"/>
</g>
</svg>
