<svg width="59" height="57" viewBox="0 0 59 57" fill="none" xmlns="http://www.w3.org/2000/svg">
<path d="M28.0781 55.6692C27.6193 55.696 27.1921 55.525 26.8877 55.4006C26.6241 55.293 26.4331 55.2117 26.2646 55.1702L26.1016 55.1428L26.0996 55.1418C26.0199 55.1348 25.9095 55.1657 25.6455 55.2727C25.4409 55.3556 25.0811 55.5144 24.6963 55.4954L24.6953 55.4954L24.6934 55.4963L24.6943 55.4954C24.2512 55.4741 23.8181 55.3782 23.4375 55.2932C23.0401 55.2045 22.6966 55.1282 22.3604 55.1067L22.3398 55.1106C22.3209 55.1153 22.2885 55.1252 22.2383 55.1467C22.1916 55.1667 22.1409 55.1915 22.0781 55.2229C22.0198 55.2521 21.9454 55.2897 21.8721 55.3235C21.7318 55.3881 21.5214 55.4742 21.2822 55.4807C21.0111 55.488 20.7482 55.3932 20.5283 55.1799L20.3564 55.0286C19.9565 54.7115 19.5628 54.6348 19.1221 54.6233C18.838 54.6159 18.5923 54.6352 18.2559 54.6409C17.9449 54.6461 17.5975 54.6373 17.2383 54.5569L17.2373 54.5569C15.7632 54.2289 14.2778 53.7723 12.7988 53.0911L12.7998 53.0911C11.2041 52.3582 9.53674 51.6255 7.90137 50.4348C6.25554 49.2365 4.65361 47.5855 3.13086 45.0208L2.90527 44.6204C2.45832 43.7871 2.0351 42.7588 1.66992 41.5999L1.49219 41.009L1.3584 40.5198C0.717057 38.0494 0.472316 35.2465 0.583006 32.6067C0.700784 29.7982 1.22389 27.1217 2.14453 25.2024L2.14453 25.2014C4.53643 20.2178 7.17414 17.3776 9.91699 15.469C11.6327 14.2739 13.352 13.1856 15.0635 12.1174C16.7781 11.0473 18.4808 9.99886 20.1797 8.87329L20.1807 8.87427C23.4547 6.70328 26.7874 5.63888 30.168 5.71607L30.1689 5.71607C30.9854 5.73628 31.7853 5.91049 32.5498 6.11939C32.9323 6.22392 33.3148 6.33921 33.6865 6.45044C34.0612 6.56257 34.4272 6.67139 34.791 6.76587L34.7959 6.76685C34.9702 6.81376 35.0922 6.91723 35.1602 6.98364C35.2335 7.05533 35.2945 7.13489 35.3398 7.19751C35.3848 7.25966 35.4325 7.33139 35.4658 7.38013C35.5039 7.43588 35.5312 7.47383 35.5537 7.50122L35.6748 7.64868L35.6797 7.83911C35.6798 7.84397 35.6795 7.8489 35.6797 7.85376L36.7529 7.85376L35.4853 8.84986C35.3329 8.96952 35.2313 9.08313 35.0176 9.27368C34.8538 9.41968 34.5936 9.63746 34.2725 9.70923L34.2656 9.71021C32.7866 10.0213 31.2901 10.2534 29.8389 10.5149C28.3761 10.7785 26.934 11.0768 25.5029 11.5266C23.2784 12.2275 21.0576 13.5427 18.7588 14.8528C16.1165 16.3587 13.549 17.6496 11.0273 19.7532C8.699 21.6988 6.40048 23.6473 4.31933 27.7874C4.05917 28.3061 3.80347 28.841 3.55566 29.4104C2.25392 32.4175 2.56886 36.1764 3.54492 39.0178L3.7832 39.677C4.98984 42.8483 6.4217 44.2072 7.87793 45.428C10.8563 47.9282 13.8828 49.2184 16.9502 50.012L16.9502 50.0129C22.1913 51.3644 27.4282 51.5405 32.6787 50.6028L32.6797 50.6028C36.9582 49.8419 41.2127 48.045 45.4521 45.2903L46.2998 44.7268C48.4786 43.2432 50.6282 41.3935 52.6426 38.0999L53.0439 37.4211C53.7371 36.2066 54.3986 34.4847 54.998 32.592C55.706 30.3519 55.6622 27.4401 54.9922 24.9124C53.8618 20.6466 52.3766 18.4777 50.8779 16.1877C48.1138 11.9668 45.2309 9.09377 42.3027 6.95923C41.4767 6.35908 40.6389 5.87273 39.7832 5.4065C38.9372 4.94559 38.0488 4.49145 37.1777 3.97876L37.1768 3.97876C36.9298 3.83303 36.6957 3.65117 36.4795 3.47486C36.2488 3.28679 36.0588 3.12229 35.8369 2.94751L35.4072 2.60864L35.7383 2.1731C36.297 1.43655 36.8891 0.963742 37.5264 0.729738C38.1689 0.493817 38.7987 0.522189 39.3877 0.68091C39.9662 0.836874 40.5214 1.12319 41.0352 1.42212C41.2936 1.57252 41.5519 1.73184 41.7998 1.88403C41.9251 1.96099 42.0481 2.03668 42.1699 2.10962L42.5322 2.32056C45.4355 3.95675 48.2543 6.51597 50.9434 10.3596C52.9689 13.2541 54.971 16.4568 56.6328 21.6262C58.2559 26.6784 57.8313 33.1708 56.3623 37.2141C54.2368 43.0682 51.6515 45.6309 49.0264 47.6213L47.9902 48.4016C46.9511 49.1753 45.9004 49.9234 44.8408 50.5706L44.8398 50.5706C43.4269 51.4295 42.0098 52.0898 40.6152 52.7092L40.4785 52.761C40.1616 52.8556 39.8728 52.7782 39.6934 52.7122C39.6533 52.6974 39.6153 52.6789 39.5791 52.6633C39.2793 52.8846 39.0493 53.0524 38.8203 53.2297L38.8154 53.2336C38.2137 53.6891 37.5138 53.6615 37.1729 53.6731C37.1582 53.682 37.1127 53.7091 37.0273 53.7825C36.9317 53.8647 36.7059 54.0838 36.5264 54.2112C36.3329 54.3485 35.977 54.5477 35.5537 54.4045C35.2775 54.3111 35.0745 54.102 34.915 53.8489C34.8764 53.884 34.8327 53.9225 34.79 53.9592C34.6881 54.0469 34.5052 54.1979 34.2822 54.2629C33.2928 54.5573 32.3043 54.8075 31.3213 55.0374L31.3193 55.0374C30.3213 55.2668 29.1902 55.6038 28.0781 55.6692Z" fill="#008F2B" stroke="#008F2B" stroke-width="1.11461"/>
</svg>
