<svg width="374" height="332" viewBox="0 0 374 332" fill="none" xmlns="http://www.w3.org/2000/svg">
<g filter="url(#filter0_d_4553_44472)">
<path d="M187 42L285 78V236L187 272L89 236V78L187 42Z" fill="#214873"/>
<path d="M187.5 51L276 84.2427V231.757L187.5 265L99 231.757V84.2427L187.5 51Z" stroke="white" stroke-width="2" stroke-linecap="round" stroke-dasharray="5 5"/>
<path d="M57 193H73L57 206V193Z" fill="#17A59D"/>
<path d="M317 193H301L317 206V193Z" fill="#17A59D"/>
<path d="M57 141H317L297 167L317 193H57L77 167L57 141Z" fill="#33DED8"/>
<path d="M187 240.911L188.556 244.855L192.5 246.411L188.556 247.967L187 251.911L185.444 247.967L181.5 246.411L185.444 244.855L187 240.911Z" fill="#33DED8"/>
<path d="M109.329 129.5V117.136H114.436C115.362 117.136 116.161 117.317 116.833 117.68C117.509 118.038 118.03 118.539 118.396 119.183C118.763 119.823 118.946 120.567 118.946 121.417C118.946 122.27 118.758 123.016 118.384 123.656C118.014 124.292 117.485 124.785 116.796 125.135C116.108 125.485 115.291 125.661 114.345 125.661H111.194V123.306H113.79C114.241 123.306 114.617 123.228 114.919 123.071C115.225 122.914 115.456 122.694 115.613 122.413C115.77 122.127 115.849 121.795 115.849 121.417C115.849 121.034 115.77 120.704 115.613 120.426C115.456 120.145 115.225 119.927 114.919 119.775C114.613 119.622 114.237 119.545 113.79 119.545H112.317V129.5H109.329ZM121.419 129.5V117.136H130.039V119.563H124.407V122.099H129.599V124.532H124.407V127.073H130.039V129.5H121.419ZM132.911 129.5V117.136H138.018C138.944 117.136 139.743 117.303 140.415 117.637C141.091 117.967 141.612 118.442 141.978 119.062C142.345 119.678 142.528 120.408 142.528 121.254C142.528 122.111 142.341 122.839 141.966 123.439C141.592 124.035 141.061 124.489 140.372 124.803C139.684 125.113 138.869 125.268 137.928 125.268H134.698V122.914H137.372C137.823 122.914 138.199 122.855 138.501 122.739C138.807 122.618 139.038 122.437 139.195 122.195C139.352 121.95 139.431 121.636 139.431 121.254C139.431 120.871 139.352 120.555 139.195 120.306C139.038 120.052 138.807 119.863 138.501 119.738C138.195 119.609 137.819 119.545 137.372 119.545H135.899V129.5H132.911ZM139.871 123.849L142.95 129.5H139.69L136.672 123.849H139.871ZM145.167 129.5V117.136H153.606V119.563H148.155V122.099H153.069V124.532H148.155V129.5H145.167ZM156.111 129.5V117.136H164.732V119.563H159.099V122.099H164.291V124.532H159.099V127.073H164.732V129.5H156.111ZM178.826 121.616H175.807C175.767 121.306 175.685 121.026 175.56 120.777C175.435 120.527 175.27 120.314 175.065 120.137C174.86 119.96 174.616 119.825 174.334 119.732C174.057 119.636 173.749 119.587 173.411 119.587C172.811 119.587 172.294 119.734 171.859 120.028C171.429 120.322 171.097 120.746 170.863 121.302C170.634 121.857 170.519 122.529 170.519 123.318C170.519 124.139 170.636 124.827 170.869 125.383C171.107 125.934 171.439 126.351 171.865 126.632C172.296 126.91 172.805 127.049 173.393 127.049C173.723 127.049 174.022 127.007 174.292 126.922C174.566 126.838 174.805 126.715 175.011 126.554C175.22 126.389 175.391 126.19 175.524 125.956C175.66 125.719 175.755 125.451 175.807 125.153L178.826 125.172C178.774 125.719 178.615 126.258 178.349 126.789C178.087 127.321 177.727 127.806 177.268 128.244C176.81 128.679 176.25 129.025 175.59 129.283C174.934 129.54 174.181 129.669 173.332 129.669C172.213 129.669 171.211 129.424 170.326 128.933C169.444 128.437 168.748 127.717 168.237 126.771C167.726 125.826 167.47 124.674 167.47 123.318C167.47 121.958 167.73 120.805 168.249 119.859C168.768 118.913 169.471 118.195 170.356 117.704C171.241 117.213 172.234 116.967 173.332 116.967C174.081 116.967 174.773 117.072 175.409 117.281C176.045 117.487 176.604 117.788 177.087 118.187C177.57 118.581 177.963 119.066 178.264 119.642C178.566 120.217 178.753 120.875 178.826 121.616ZM181.131 119.563V117.136H191.581V119.563H187.832V129.5H184.886V119.563H181.131ZM198.693 117.136H202.394L205.533 124.791H205.678L208.817 117.136H212.518V129.5H209.608V121.906H209.505L206.535 129.422H204.676L201.705 121.863H201.603V129.5H198.693V117.136ZM218.056 129.5H214.844L219.016 117.136H222.994L227.166 129.5H223.954L221.05 120.251H220.954L218.056 129.5ZM217.627 124.634H224.34V126.904H217.627V124.634ZM227.548 119.563V117.136H237.998V119.563H234.249V129.5H231.303V119.563H227.548ZM251.116 121.616H248.097C248.057 121.306 247.975 121.026 247.85 120.777C247.725 120.527 247.56 120.314 247.355 120.137C247.15 119.96 246.906 119.825 246.624 119.732C246.347 119.636 246.039 119.587 245.701 119.587C245.101 119.587 244.584 119.734 244.149 120.028C243.719 120.322 243.387 120.746 243.153 121.302C242.924 121.857 242.809 122.529 242.809 123.318C242.809 124.139 242.926 124.827 243.159 125.383C243.397 125.934 243.729 126.351 244.155 126.632C244.586 126.91 245.095 127.049 245.683 127.049C246.013 127.049 246.313 127.007 246.582 126.922C246.856 126.838 247.095 126.715 247.301 126.554C247.51 126.389 247.681 126.19 247.814 125.956C247.951 125.719 248.045 125.451 248.097 125.153L251.116 125.172C251.064 125.719 250.905 126.258 250.639 126.789C250.377 127.321 250.017 127.806 249.558 128.244C249.1 128.679 248.54 129.025 247.88 129.283C247.224 129.54 246.471 129.669 245.622 129.669C244.503 129.669 243.501 129.424 242.616 128.933C241.735 128.437 241.038 127.717 240.527 126.771C240.016 125.826 239.76 124.674 239.76 123.318C239.76 121.958 240.02 120.805 240.539 119.859C241.058 118.913 241.761 118.195 242.646 117.704C243.532 117.213 244.524 116.967 245.622 116.967C246.371 116.967 247.063 117.072 247.699 117.281C248.335 117.487 248.894 117.788 249.377 118.187C249.86 118.581 250.253 119.066 250.554 119.642C250.856 120.217 251.043 120.875 251.116 121.616ZM253.826 129.5V117.136H256.814V122.099H261.686V117.136H264.668V129.5H261.686V124.532H256.814V129.5H253.826Z" fill="white"/>
<path d="M104.089 162.954C103.995 162.569 103.846 162.231 103.642 161.94C103.439 161.642 103.184 161.391 102.879 161.188C102.581 160.977 102.232 160.821 101.833 160.719C101.44 160.61 101.008 160.555 100.535 160.555C99.5177 160.555 98.6492 160.799 97.9297 161.286C97.2174 161.773 96.6723 162.474 96.2944 163.39C95.9237 164.306 95.7384 165.41 95.7384 166.704C95.7384 168.012 95.9165 169.132 96.2726 170.062C96.6287 170.992 97.1593 171.704 97.8642 172.199C98.5692 172.693 99.445 172.94 100.492 172.94C101.415 172.94 102.181 172.805 102.792 172.537C103.41 172.268 103.871 171.886 104.176 171.392C104.482 170.898 104.634 170.316 104.634 169.648L105.681 169.757H100.579V165.439H110.478V168.536C110.478 170.571 110.045 172.311 109.18 173.758C108.323 175.197 107.138 176.301 105.626 177.072C104.122 177.835 102.396 178.216 100.448 178.216C98.2749 178.216 96.3671 177.755 94.7245 176.832C93.082 175.909 91.7992 174.593 90.8762 172.885C89.9604 171.177 89.5026 169.146 89.5026 166.791C89.5026 164.945 89.7824 163.31 90.342 161.885C90.9089 160.461 91.6938 159.258 92.6968 158.277C93.6998 157.289 94.859 156.544 96.1745 156.042C97.49 155.533 98.8999 155.279 100.404 155.279C101.727 155.279 102.955 155.468 104.089 155.846C105.23 156.217 106.237 156.747 107.109 157.438C107.988 158.121 108.697 158.931 109.235 159.869C109.773 160.806 110.1 161.835 110.216 162.954H104.089ZM126.517 155.584H132.578V169.887C132.578 171.588 132.171 173.06 131.357 174.303C130.551 175.538 129.424 176.494 127.978 177.17C126.531 177.838 124.853 178.173 122.941 178.173C121.015 178.173 119.329 177.838 117.883 177.17C116.436 176.494 115.31 175.538 114.503 174.303C113.704 173.06 113.304 171.588 113.304 169.887V155.584H119.365V169.364C119.365 170.055 119.518 170.672 119.823 171.217C120.128 171.755 120.55 172.177 121.088 172.482C121.633 172.787 122.251 172.94 122.941 172.94C123.639 172.94 124.257 172.787 124.794 172.482C125.332 172.177 125.754 171.755 126.059 171.217C126.364 170.672 126.517 170.055 126.517 169.364V155.584ZM141.259 177.911H134.718L142.087 155.584H150.373L157.742 177.911H151.201L146.317 161.733H146.143L141.259 177.911ZM140.038 169.102H152.335V173.638H140.038V169.102ZM159.893 177.911V155.584H169.53C171.187 155.584 172.637 155.886 173.88 156.489C175.123 157.092 176.089 157.961 176.78 159.095C177.47 160.228 177.815 161.587 177.815 163.172C177.815 164.771 177.459 166.119 176.747 167.216C176.042 168.314 175.05 169.142 173.771 169.702C172.499 170.262 171.013 170.542 169.312 170.542H163.556V165.832H168.091C168.803 165.832 169.41 165.745 169.912 165.57C170.42 165.389 170.809 165.102 171.078 164.709C171.354 164.317 171.492 163.804 171.492 163.172C171.492 162.532 171.354 162.013 171.078 161.613C170.809 161.206 170.42 160.908 169.912 160.719C169.41 160.523 168.803 160.425 168.091 160.425H165.954V177.911H159.893ZM172.975 167.663L178.557 177.911H171.972L166.521 167.663H172.975ZM186.199 177.911H179.658L187.027 155.584H195.313L202.682 177.911H196.141L191.257 161.733H191.083L186.199 177.911ZM184.978 169.102H197.275V173.638H184.978V169.102ZM224.151 155.584V177.911H219.092L211.025 166.181H210.894V177.911H204.833V155.584H209.978L217.915 167.271H218.089V155.584H224.151ZM226.407 160.468V155.584H245.813V160.468H239.097V177.911H233.123V160.468H226.407ZM248.094 177.911V155.584H264.185V160.468H254.155V164.306H263.356V169.19H254.155V173.027H264.141V177.911H248.094ZM267.191 177.911V155.584H283.282V160.468H273.252V164.306H282.454V169.19H273.252V173.027H283.239V177.911H267.191Z" fill="#214873"/>
<path d="M108.77 211.911V205.729H109.89V210.972H112.613V211.911H108.77ZM116.005 205.729V211.911H114.885V205.729H116.005ZM118.517 211.911V205.729H122.477V206.668H119.637V208.346H122.206V209.285H119.637V211.911H118.517ZM124.798 211.911V205.729H128.818V206.668H125.918V208.346H128.61V209.285H125.918V210.972H128.842V211.911H124.798ZM130.989 206.668V205.729H135.921V206.668H134.011V211.911H132.9V206.668H130.989ZM139.292 205.729V211.911H138.172V205.729H139.292ZM141.805 205.729H143.175L145.01 210.209H145.083L146.918 205.729H148.288V211.911H147.214V207.664H147.156L145.448 211.893H144.645L142.937 207.655H142.879V211.911H141.805V205.729ZM150.808 211.911V205.729H154.828V206.668H151.928V208.346H154.62V209.285H151.928V210.972H154.852V211.911H150.808ZM160.679 211.911V205.729H164.639V206.668H161.799V208.346H164.368V209.285H161.799V211.911H160.679ZM166.96 211.911V205.729H169.278C169.753 205.729 170.151 205.812 170.473 205.977C170.797 206.142 171.042 206.373 171.207 206.671C171.374 206.967 171.457 207.312 171.457 207.706C171.457 208.103 171.373 208.447 171.204 208.739C171.037 209.028 170.79 209.253 170.464 209.412C170.138 209.569 169.738 209.647 169.263 209.647H167.612V208.718H169.112C169.39 208.718 169.617 208.679 169.794 208.603C169.971 208.524 170.102 208.411 170.186 208.262C170.273 208.111 170.316 207.926 170.316 207.706C170.316 207.487 170.273 207.3 170.186 207.145C170.1 206.988 169.968 206.869 169.791 206.789C169.614 206.706 169.386 206.665 169.106 206.665H168.08V211.911H166.96ZM170.153 209.11L171.684 211.911H170.434L168.931 209.11H170.153ZM173.788 211.911V205.729H177.809V206.668H174.908V208.346H177.6V209.285H174.908V210.972H177.833V211.911H173.788ZM180.251 211.911V205.729H184.272V206.668H181.371V208.346H184.063V209.285H181.371V210.972H184.296V211.911H180.251ZM190.123 211.911V205.729H192.441C192.916 205.729 193.314 205.812 193.636 205.977C193.96 206.142 194.205 206.373 194.37 206.671C194.537 206.967 194.62 207.312 194.62 207.706C194.62 208.103 194.536 208.447 194.367 208.739C194.2 209.028 193.953 209.253 193.627 209.412C193.301 209.569 192.901 209.647 192.426 209.647H190.775V208.718H192.275C192.552 208.718 192.78 208.679 192.957 208.603C193.134 208.524 193.265 208.411 193.349 208.262C193.436 208.111 193.479 207.926 193.479 207.706C193.479 207.487 193.436 207.3 193.349 207.145C193.263 206.988 193.131 206.869 192.954 206.789C192.777 206.706 192.548 206.665 192.269 206.665H191.242V211.911H190.123ZM193.316 209.11L194.846 211.911H193.597L192.094 209.11H193.316ZM196.951 211.911V205.729H200.971V206.668H198.071V208.346H200.763V209.285H198.071V210.972H200.996V211.911H196.951ZM203.414 211.911V205.729H205.732C206.207 205.729 206.606 205.818 206.927 205.995C207.251 206.172 207.496 206.416 207.661 206.725C207.828 207.033 207.911 207.383 207.911 207.776C207.911 208.172 207.828 208.524 207.661 208.832C207.494 209.14 207.247 209.383 206.921 209.56C206.595 209.735 206.194 209.822 205.717 209.822H204.181V208.902H205.566C205.844 208.902 206.071 208.853 206.248 208.757C206.425 208.66 206.556 208.527 206.641 208.358C206.727 208.189 206.771 207.995 206.771 207.776C206.771 207.556 206.727 207.363 206.641 207.196C206.556 207.029 206.424 206.899 206.245 206.807C206.068 206.712 205.84 206.665 205.56 206.665H204.534V211.911H203.414ZM210.184 211.911V205.729H211.304V210.972H214.027V211.911H210.184ZM217.325 211.911H216.13L218.306 205.729H219.688L221.868 211.911H220.672L219.021 206.997H218.973L217.325 211.911ZM217.364 209.487H220.624V210.387H217.364V209.487ZM228.983 207.815H227.854C227.822 207.63 227.762 207.466 227.676 207.323C227.589 207.178 227.482 207.055 227.353 206.955C227.224 206.854 227.077 206.779 226.912 206.728C226.749 206.676 226.573 206.65 226.384 206.65C226.048 206.65 225.75 206.734 225.49 206.903C225.231 207.071 225.028 207.316 224.881 207.64C224.734 207.962 224.66 208.355 224.66 208.82C224.66 209.293 224.734 209.692 224.881 210.016C225.03 210.338 225.233 210.581 225.49 210.746C225.75 210.909 226.047 210.991 226.381 210.991C226.566 210.991 226.739 210.966 226.9 210.918C227.063 210.868 227.209 210.794 227.338 210.698C227.469 210.601 227.578 210.482 227.667 210.342C227.757 210.201 227.82 210.04 227.854 209.859L228.983 209.865C228.941 210.158 228.849 210.434 228.708 210.692C228.569 210.949 228.387 211.177 228.162 211.374C227.936 211.569 227.673 211.722 227.371 211.833C227.069 211.941 226.734 211.996 226.366 211.996C225.822 211.996 225.337 211.87 224.911 211.618C224.484 211.367 224.148 211.004 223.903 210.529C223.657 210.054 223.534 209.484 223.534 208.82C223.534 208.154 223.658 207.585 223.906 207.112C224.153 206.637 224.49 206.274 224.917 206.022C225.344 205.771 225.826 205.645 226.366 205.645C226.71 205.645 227.03 205.693 227.326 205.79C227.621 205.886 227.885 206.028 228.116 206.215C228.348 206.4 228.538 206.628 228.687 206.897C228.838 207.165 228.937 207.471 228.983 207.815ZM231.308 211.911V205.729H235.329V206.668H232.428V208.346H235.121V209.285H232.428V210.972H235.353V211.911H231.308ZM237.771 205.729H239.142L240.977 210.209H241.049L242.885 205.729H244.255V211.911H243.181V207.664H243.123L241.415 211.893H240.612L238.903 207.655H238.846V211.911H237.771V205.729ZM246.775 211.911V205.729H250.795V206.668H247.894V208.346H250.587V209.285H247.894V210.972H250.819V211.911H246.775ZM258.318 205.729V211.911H257.322L254.409 207.7H254.357V211.911H253.238V205.729H254.24L257.15 209.943H257.204V205.729H258.318ZM260.566 206.668V205.729H265.498V206.668H263.588V211.911H262.477V206.668H260.566Z" fill="white"/>
<g clip-path="url(#clip0_4553_44472)">
<path d="M171.949 80.7655L173.881 86.1815L175.954 80.5367C176.119 80.079 176.271 79.7611 176.437 79.5704C176.602 79.3797 176.831 79.2907 177.149 79.2907C177.292 79.2879 177.434 79.3135 177.567 79.3658C177.7 79.4182 177.821 79.4964 177.924 79.5959C178.025 79.6852 178.105 79.7949 178.16 79.9177C178.214 80.0404 178.242 80.1734 178.242 80.3078C178.241 80.4324 178.224 80.5564 178.191 80.6765C178.156 80.8102 178.114 80.9418 178.064 81.0706C178.013 81.1978 177.962 81.3376 177.899 81.4902L175.61 87.1604C175.547 87.3257 175.458 87.5291 175.356 87.7834C175.271 88.0097 175.155 88.2236 175.013 88.4191C174.893 88.5906 174.736 88.7338 174.555 88.8386C174.351 88.9454 174.124 88.998 173.894 88.9912C173.605 89.0064 173.319 88.926 173.08 88.7623C172.896 88.6285 172.743 88.4547 172.635 88.2538C172.534 88.0758 172.381 87.7071 172.152 87.1731L169.889 81.5665C169.838 81.4266 169.787 81.2868 169.724 81.1469C169.67 81.0054 169.623 80.8611 169.584 80.7147C169.55 80.5904 169.533 80.4621 169.533 80.3332C169.535 80.1606 169.588 79.9924 169.686 79.8501C169.788 79.6883 169.928 79.5532 170.093 79.456C170.266 79.3554 170.464 79.3027 170.665 79.3034C171.059 79.3034 171.339 79.4179 171.478 79.6467C171.679 79.9998 171.837 80.3754 171.949 80.7655Z" fill="white"/>
<path d="M180.538 78.5532C180.226 78.5593 179.923 78.4508 179.686 78.248C179.565 78.1403 179.47 78.0065 179.409 77.8567C179.347 77.707 179.32 77.5452 179.33 77.3835C179.325 77.2262 179.355 77.0697 179.416 76.9249C179.477 76.78 179.57 76.6502 179.686 76.5444C179.914 76.3317 180.214 76.2135 180.525 76.2139C180.826 76.2137 181.118 76.317 181.352 76.5063C181.593 76.7097 181.708 76.9894 181.708 77.3708C181.716 77.5311 181.689 77.6912 181.63 77.8404C181.571 77.9895 181.48 78.1242 181.364 78.2353C181.142 78.4462 180.845 78.5604 180.538 78.5532Z" fill="white"/>
<path d="M181.726 80.6254V87.5162C181.726 87.9993 181.612 88.3553 181.383 88.5968C181.273 88.7166 181.14 88.8114 180.991 88.8751C180.841 88.9387 180.68 88.9695 180.518 88.9655C180.357 88.9713 180.196 88.94 180.048 88.8738C179.9 88.8077 179.77 88.7086 179.666 88.5841C179.45 88.3298 179.336 87.9738 179.336 87.5162V80.7017C179.336 80.2313 179.45 79.8753 179.666 79.6338C179.773 79.5151 179.905 79.4215 180.052 79.36C180.2 79.2984 180.359 79.2703 180.518 79.2778C180.68 79.2715 180.84 79.3001 180.989 79.3615C181.139 79.4229 181.273 79.5158 181.383 79.6338C181.623 79.9064 181.746 80.2626 181.726 80.6254Z" fill="white"/>
<path d="M185.451 85.5198V87.5158C185.451 87.9989 185.336 88.3549 185.107 88.5965C184.995 88.7103 184.861 88.8004 184.713 88.8615C184.565 88.9227 184.407 88.9536 184.247 88.9524C184.087 88.9512 183.928 88.918 183.782 88.8546C183.635 88.7913 183.502 88.6992 183.391 88.5838C183.175 88.3422 183.061 87.9735 183.061 87.5031V80.8666C183.061 79.7987 183.442 79.2647 184.217 79.2647C184.612 79.2647 184.904 79.3919 185.069 79.6461C185.235 79.9004 185.336 80.2691 185.362 80.7522C185.588 80.3355 185.885 79.9613 186.239 79.6461C186.579 79.3796 187.003 79.2442 187.434 79.2647C187.946 79.2676 188.448 79.3988 188.896 79.6461C189.366 79.9004 189.608 80.231 189.608 80.6378C189.612 80.7733 189.586 80.9081 189.534 81.0331C189.481 81.1581 189.402 81.2704 189.303 81.3625C189.132 81.5374 188.899 81.6379 188.655 81.6422C188.437 81.6123 188.223 81.5569 188.019 81.4769C187.732 81.3795 187.432 81.3239 187.129 81.3116C186.82 81.2964 186.517 81.396 186.277 81.5913C186.034 81.8089 185.858 82.0911 185.769 82.405C185.634 82.8216 185.548 83.2525 185.514 83.689C185.476 84.1976 185.451 84.8078 185.451 85.5198Z" fill="white"/>
<path d="M191.043 79.4811H191.31V78.0572C191.31 77.6758 191.323 77.3706 191.336 77.1545C191.352 76.9587 191.408 76.7684 191.501 76.5951C191.597 76.4279 191.738 76.2912 191.908 76.201C192.086 76.0986 192.288 76.0459 192.493 76.0484C192.802 76.0519 193.098 76.1749 193.319 76.3917C193.483 76.537 193.591 76.7348 193.624 76.9511C193.671 77.2582 193.692 77.5686 193.688 77.8792V79.5065H194.565C194.908 79.5065 195.162 79.5828 195.34 79.7481C195.426 79.8246 195.494 79.9188 195.541 80.0241C195.587 80.1294 195.609 80.2434 195.607 80.3583C195.618 80.4959 195.588 80.6335 195.52 80.7536C195.452 80.8737 195.35 80.9707 195.226 81.0321C194.972 81.1593 194.616 81.2228 194.145 81.2228H193.688V85.609C193.684 85.8977 193.696 86.1863 193.726 86.4735C193.744 86.6513 193.814 86.8197 193.929 86.9566C194.044 87.0838 194.222 87.1474 194.489 87.1474C194.681 87.1407 194.873 87.1151 195.061 87.0711C195.244 87.0272 195.432 87.0016 195.62 86.9948C195.718 86.9958 195.815 87.0166 195.904 87.0559C195.994 87.0952 196.074 87.1523 196.141 87.2236C196.217 87.2983 196.276 87.3876 196.315 87.486C196.354 87.5844 196.373 87.6898 196.37 87.7957C196.37 88.1771 196.167 88.4696 195.747 88.673C195.328 88.8764 194.73 88.9781 193.942 88.9781C193.192 88.9781 192.632 88.851 192.251 88.5967C191.877 88.3577 191.609 87.9847 191.501 87.5542C191.37 86.9746 191.31 86.3811 191.323 85.787V81.2101H191.005C190.662 81.2101 190.395 81.1338 190.217 80.9686C190.13 80.8903 190.061 80.794 190.015 80.6865C189.969 80.5789 189.947 80.4626 189.95 80.3456C189.945 80.229 189.968 80.1128 190.016 80.0067C190.065 79.9006 190.138 79.8076 190.23 79.7354C190.408 79.5701 190.687 79.4811 191.043 79.4811Z" fill="white"/>
<path d="M203.071 87.6179V87.3128C202.81 87.6506 202.507 87.9539 202.169 88.2154C201.86 88.4564 201.512 88.6414 201.139 88.7621C200.726 88.8844 200.298 88.9444 199.868 88.9401C199.329 88.9506 198.797 88.8283 198.317 88.5841C197.877 88.3616 197.511 88.0174 197.261 87.5925C196.969 87.0839 196.816 86.3593 196.816 85.4057V80.689C196.816 80.2059 196.918 79.8499 197.134 79.6211C197.241 79.5024 197.373 79.4089 197.52 79.3473C197.667 79.2857 197.827 79.2577 197.986 79.2651C198.149 79.2584 198.312 79.2867 198.463 79.3481C198.615 79.4095 198.751 79.5026 198.863 79.6211C199.079 79.8626 199.194 80.2186 199.194 80.689V84.5031C199.187 84.9689 199.234 85.4339 199.334 85.8889C199.398 86.2278 199.572 86.536 199.83 86.7661C200.105 86.9908 200.454 87.1042 200.808 87.0839C201.213 87.0854 201.609 86.961 201.94 86.728C202.283 86.5009 202.553 86.1783 202.715 85.7999C202.855 85.4566 202.919 84.7192 202.919 83.5877V80.689C202.919 80.2186 203.033 79.8626 203.249 79.6211C203.359 79.5021 203.493 79.4086 203.642 79.3471C203.792 79.2856 203.953 79.2576 204.114 79.2651C204.273 79.2577 204.433 79.2857 204.58 79.3473C204.727 79.4089 204.859 79.5024 204.966 79.6211C205.182 79.8626 205.284 80.2186 205.284 80.689V87.5925C205.284 88.0502 205.182 88.3807 204.979 88.6096C204.879 88.7225 204.755 88.8119 204.617 88.8713C204.478 88.9307 204.328 88.9585 204.178 88.9528C204.026 88.9588 203.874 88.9299 203.736 88.8681C203.597 88.8064 203.474 88.7136 203.377 88.5968C203.173 88.368 203.071 88.0374 203.071 87.6179Z" fill="white"/>
<path d="M212.733 87.6179C212.226 88.0269 211.666 88.3648 211.067 88.6223C210.494 88.8535 209.88 88.9659 209.262 88.9529C208.703 88.966 208.149 88.8439 207.647 88.5969C207.21 88.372 206.841 88.034 206.579 87.6179C206.327 87.2139 206.195 86.7466 206.198 86.2703C206.183 85.6555 206.406 85.0586 206.821 84.6048C207.228 84.1471 207.8 83.842 208.525 83.6767C208.677 83.6386 209.046 83.5623 209.656 83.4352C210.266 83.308 210.775 83.2063 211.194 83.1046C211.614 83.0029 212.084 82.8758 212.58 82.7359C212.555 82.113 212.428 81.6426 212.199 81.3502C211.97 81.0577 211.512 80.9052 210.813 80.9052C210.203 80.9052 209.758 80.9942 209.453 81.1595C209.128 81.3411 208.857 81.604 208.664 81.9223C208.448 82.2655 208.296 82.4817 208.207 82.5961C208.118 82.7105 207.927 82.7614 207.622 82.7614C207.366 82.7625 207.118 82.6723 206.923 82.5071C206.828 82.4253 206.753 82.3235 206.703 82.2093C206.652 82.095 206.627 81.9709 206.63 81.846C206.641 81.4015 206.798 80.9727 207.075 80.6255C207.368 80.2314 207.838 79.9008 208.461 79.6465C209.084 79.3923 209.872 79.2651 210.813 79.2651C211.856 79.2651 212.682 79.3923 213.279 79.6338C213.839 79.8442 214.295 80.2635 214.551 80.8035C214.792 81.3374 214.92 82.0494 214.92 82.9266V84.3506C214.92 84.7447 214.907 85.1769 214.907 85.6473C214.913 86.1213 214.986 86.5921 215.123 87.0458C215.275 87.5289 215.352 87.8468 215.352 87.9866C215.347 88.1171 215.314 88.245 215.254 88.3614C215.195 88.4778 215.111 88.5798 215.009 88.6604C214.797 88.8554 214.521 88.9642 214.233 88.9656C213.956 88.9498 213.696 88.8266 213.508 88.6223C213.205 88.3243 212.944 87.9864 212.733 87.6179ZM212.568 84.1726C212.069 84.3441 211.559 84.48 211.042 84.5794C210.381 84.7192 209.91 84.821 209.656 84.8972C209.385 84.9749 209.134 85.1093 208.919 85.2914C208.804 85.3925 208.714 85.5181 208.654 85.659C208.595 85.7999 208.568 85.9523 208.575 86.105C208.574 86.2778 208.609 86.449 208.679 86.6069C208.75 86.7649 208.853 86.9059 208.982 87.0204C209.276 87.28 209.658 87.4166 210.05 87.4018C210.505 87.4051 210.953 87.3005 211.36 87.0967C211.724 86.9208 212.029 86.6425 212.237 86.2957C212.453 85.9397 212.555 85.3422 212.555 84.5158V84.1726H212.568Z" fill="white"/>
<path d="M216.609 87.5161V77.18C216.609 76.6968 216.711 76.3409 216.927 76.0993C217.035 75.9776 217.168 75.8813 217.318 75.8176C217.467 75.7538 217.629 75.7241 217.792 75.7306C217.954 75.7272 218.116 75.757 218.267 75.8182C218.418 75.8795 218.555 75.9708 218.669 76.0866C218.885 76.3282 219 76.6841 219 77.1672V87.5034C219 87.9865 218.885 88.3425 218.669 88.584C218.559 88.702 218.425 88.7949 218.276 88.8563C218.126 88.9177 217.966 88.9463 217.804 88.94C217.643 88.9445 217.482 88.9125 217.335 88.8465C217.188 88.7805 217.057 88.6821 216.953 88.5586C216.724 88.3425 216.609 87.9738 216.609 87.5161Z" fill="white"/>
<path d="M158.842 84.3887C159.544 84.3887 160.113 83.8195 160.113 83.1173C160.113 82.4152 159.544 81.8459 158.842 81.8459C158.14 81.8459 157.57 82.4152 157.57 83.1173C157.57 83.8195 158.14 84.3887 158.842 84.3887Z" fill="white"/>
<path d="M166.533 86.9441C167.235 86.9441 167.804 86.3749 167.804 85.6727C167.804 84.9706 167.235 84.4014 166.533 84.4014C165.831 84.4014 165.262 84.9706 165.262 85.6727C165.262 86.3749 165.831 86.9441 166.533 86.9441Z" fill="#33DED8"/>
<path d="M161.408 81.8203C162.11 81.8203 162.679 81.2511 162.679 80.5489C162.679 79.8468 162.11 79.2776 161.408 79.2776C160.706 79.2776 160.137 79.8468 160.137 80.5489C160.137 81.2511 160.706 81.8203 161.408 81.8203Z" fill="white"/>
<path d="M156.271 81.8203C156.974 81.8203 157.543 81.2511 157.543 80.5489C157.543 79.8468 156.974 79.2776 156.271 79.2776C155.569 79.2776 155 79.8468 155 80.5489C155 81.2511 155.569 81.8203 156.271 81.8203Z" fill="white"/>
<path d="M163.974 84.3887C164.677 84.3887 165.246 83.8195 165.246 83.1173C165.246 82.4152 164.677 81.8459 163.974 81.8459C163.272 81.8459 162.703 82.4152 162.703 83.1173C162.703 83.8195 163.272 84.3887 163.974 84.3887Z" fill="#33DED8"/>
<path d="M166.533 81.8203C167.235 81.8203 167.804 81.2511 167.804 80.5489C167.804 79.8468 167.235 79.2776 166.533 79.2776C165.831 79.2776 165.262 79.8468 165.262 80.5489C165.262 81.2511 165.831 81.8203 166.533 81.8203Z" fill="#33DED8"/>
<path d="M176.498 93.1737C176.498 91.6735 177.642 90.7073 178.901 90.7073C180.21 90.7073 180.884 91.5082 181.062 92.271L180.21 92.5507C180.096 92.0931 179.727 91.5972 178.914 91.5972C178.202 91.5972 177.464 92.1058 177.464 93.1737C177.464 94.1781 178.176 94.7375 178.926 94.7375C179.224 94.7509 179.517 94.6625 179.757 94.4868C179.998 94.3112 180.171 94.0587 180.249 93.7712L181.113 94.0255C180.935 94.7502 180.249 95.6274 178.926 95.6274C177.604 95.6274 176.498 94.6739 176.498 93.1737Z" fill="#33DED8"/>
<path d="M184.506 90.7073C185.79 90.7073 186.935 91.6481 186.935 93.1737C186.935 94.6993 185.79 95.6274 184.506 95.6274C183.222 95.6274 182.078 94.6866 182.078 93.1737C182.078 91.6608 183.235 90.7073 184.506 90.7073ZM184.506 94.7375C185.244 94.7375 185.981 94.2289 185.981 93.161C185.981 92.0931 185.231 91.5845 184.506 91.5845C183.782 91.5845 183.032 92.0931 183.032 93.161C183.032 94.2289 183.782 94.7375 184.506 94.7375Z" fill="#33DED8"/>
<path d="M193.41 90.8088H194.35L193.041 95.5383H192.1L191.019 92.1692L189.939 95.5383H188.985L187.676 90.8088H188.655L189.519 94.0635L190.562 90.8088H191.515L192.57 94.0762L193.41 90.8088Z" fill="#33DED8"/>
<path d="M197.503 90.7073C198.787 90.7073 199.931 91.6481 199.931 93.1737C199.931 94.6993 198.787 95.6274 197.503 95.6274C196.218 95.6274 195.074 94.6866 195.074 93.1737C195.074 91.6608 196.218 90.7073 197.503 90.7073ZM197.503 94.7375C198.24 94.7375 198.977 94.2289 198.977 93.161C198.977 92.0931 198.227 91.5845 197.503 91.5845C196.778 91.5845 196.028 92.0931 196.028 93.161C196.028 94.2289 196.778 94.7375 197.503 94.7375Z" fill="#33DED8"/>
<path d="M202.675 93.7078H202.192V95.5258H201.264V90.7964H203.107C204.023 90.7964 204.607 91.4321 204.607 92.2457C204.618 92.5496 204.524 92.848 204.342 93.091C204.159 93.334 203.898 93.5069 203.603 93.5807L204.62 95.5131H203.603L202.675 93.7078ZM202.942 92.9195C203.412 92.9195 203.679 92.6526 203.679 92.2712C203.679 91.8898 203.412 91.6101 202.942 91.6101H202.192V92.9195H202.942Z" fill="#33DED8"/>
<path d="M207.483 93.5675L206.898 94.2158V95.5253H205.982V90.7959H206.898V92.9318L208.792 90.7959H210L208.131 92.8555L210.013 95.5253H208.856L207.483 93.5675Z" fill="#33DED8"/>
<path d="M211.172 95.5383V90.8088H214.134V91.6734H212.1V92.754H213.943V93.5677H212.1V94.661H214.134V95.5256H211.172V95.5383Z" fill="#33DED8"/>
<path d="M216.982 93.7073H216.498V95.5253H215.57V90.7959H217.414C218.329 90.7959 218.914 91.4316 218.914 92.2452C218.925 92.5491 218.831 92.8475 218.648 93.0905C218.465 93.3335 218.205 93.5064 217.91 93.5802L218.927 95.5126H217.897L216.982 93.7073ZM217.249 92.9191C217.719 92.9191 217.986 92.6521 217.986 92.2707C217.986 91.8893 217.719 91.6096 217.249 91.6096H216.498V92.9191H217.249Z" fill="#33DED8"/>
</g>
</g>
<defs>
<filter id="filter0_d_4553_44472" x="0" y="-12" width="374" height="344" filterUnits="userSpaceOnUse" color-interpolation-filters="sRGB">
<feFlood flood-opacity="0" result="BackgroundImageFix"/>
<feColorMatrix in="SourceAlpha" type="matrix" values="0 0 0 0 0 0 0 0 0 0 0 0 0 0 0 0 0 0 127 0" result="hardAlpha"/>
<feOffset/>
<feGaussianBlur stdDeviation="26"/>
<feColorMatrix type="matrix" values="0 0 0 0 0.0509804 0 0 0 0 0.498039 0 0 0 0 0.945098 0 0 0 0.24 0"/>
<feBlend mode="normal" in2="BackgroundImageFix" result="effect1_dropShadow_4553_44472"/>
<feBlend mode="normal" in="SourceGraphic" in2="effect1_dropShadow_4553_44472" result="shape"/>
</filter>
<clipPath id="clip0_4553_44472">
<rect width="64" height="19.8967" fill="white" transform="translate(155 75.7307)"/>
</clipPath>
</defs>
</svg>
